<?xml version="1.0" encoding="UTF-8"?>
<!-- Generated by Pixelmator Pro 3.3.2 -->
<svg width="1000" height="268" viewBox="0 0 1000 268" xmlns="http://www.w3.org/2000/svg" xmlns:xlink="http://www.w3.org/1999/xlink">
    <path id="path2987" fill="#000000" stroke="none" d="M 260.872131 266.588135 C 260.872131 265.811096 260.631226 265.324219 260.336761 265.506226 C 260.042297 265.688171 259.433899 264.95752 258.984741 263.882568 C 258.510895 262.748535 257.780212 261.928009 257.244171 261.928009 C 256.514008 261.928009 256.455048 261.765625 256.963013 261.153564 C 257.456757 260.558624 257.44043 260.323517 256.892609 260.139191 C 256.331635 259.950439 256.356171 259.684204 257.007568 258.891541 C 257.638641 258.123657 257.671478 257.828583 257.145599 257.651611 C 256.766052 257.523834 256.455505 257.176941 256.455505 256.880676 C 256.455505 256.584412 256.70108 256.493805 257.001251 256.679321 C 257.314209 256.872711 257.406769 256.651123 257.218231 256.159821 C 257.037415 255.688568 257.173126 255.303009 257.52002 255.303009 C 257.979523 255.303009 257.990265 255.003448 257.559601 254.198853 C 257.084991 253.311981 257.139771 253.094696 257.838013 253.094696 C 258.540527 253.094696 258.574677 252.952698 258.01593 252.354584 C 257.301208 251.589447 255.912994 252.27359 256.094238 253.301727 C 256.141052 253.567413 255.888397 253.892151 255.532745 254.023346 C 255.107391 254.180267 254.995453 253.843689 255.205658 253.039886 C 255.381409 252.367767 255.299744 251.949829 255.0242 252.111145 C 254.748627 252.272461 254.026276 252.22168 253.419006 251.998322 C 252.543427 251.67627 252.800568 251.509094 254.661194 251.190765 C 256.124329 250.94043 257.007538 250.49585 257.007538 250.009705 C 257.007538 249.580933 257.490326 249.230133 258.080414 249.230133 C 258.670471 249.230133 259.493103 248.744934 259.908447 248.151917 C 260.653168 247.088684 263.46524 245.637817 264.37677 245.846527 C 264.634277 245.905518 266.249115 245.599396 267.965302 245.166351 C 269.681488 244.733276 272.638794 244.203857 274.537109 243.989807 C 276.435455 243.775757 278.127075 243.376648 278.296265 243.102875 C 278.465454 242.829132 279.148224 242.599579 279.813507 242.592773 C 280.47876 242.585754 282.513733 241.846222 284.335602 240.948883 C 286.157471 240.051544 288.068176 239.311829 288.581635 239.305023 C 289.095093 239.298004 289.668762 239.04422 289.856415 238.74057 C 290.044067 238.43692 289.917206 238.188477 289.574554 238.188477 C 288.809418 238.188477 289.085266 235.71936 289.856415 235.66571 C 290.160065 235.644623 291.497711 235.315491 292.828979 234.934357 C 294.160248 234.553253 295.855713 234.393555 296.59671 234.579559 C 297.337677 234.765533 298.732819 234.674347 299.697021 234.376953 C 300.661224 234.079559 302.836426 233.564911 304.530792 233.233337 C 309.180573 232.323395 311.663635 231.563232 311.663635 231.049744 C 311.663635 230.517548 283.342255 230.888916 276.330414 231.513031 C 272.636139 231.841858 271.226593 231.751984 269.705414 231.090546 C 268.64267 230.628448 267.648926 230.214447 267.497101 230.170563 C 267.345276 230.126678 266.494995 229.790894 265.607605 229.424377 C 264.720215 229.057892 263.602264 228.910614 263.12326 229.097137 C 262.644226 229.283691 255.296082 229.525482 246.794006 229.63446 C 238.291962 229.743469 230.217773 230.080048 228.851349 230.382416 C 227.484955 230.684784 223.390106 231.220612 219.751678 231.57312 C 216.113281 231.925659 212.661041 232.468506 212.080078 232.779419 C 211.499084 233.090363 209.810364 233.228149 208.327301 233.085663 C 206.844269 232.943146 205.496933 233.043274 205.333206 233.308197 C 205.169495 233.57309 204.804276 233.646912 204.521606 233.472198 C 204.238953 233.297516 204.007675 233.417603 204.007675 233.739227 C 204.007675 234.060791 203.82135 234.274597 203.593613 234.214325 C 202.675278 233.971344 197.934769 234.975769 197.934769 235.413361 C 197.934769 235.952209 193.764359 236.847931 192.187485 236.647766 C 191.607452 236.574158 190.666138 237.014893 190.095673 237.627228 C 189.525208 238.239563 188.633362 238.769897 188.1138 238.805786 C 187.594254 238.841583 185.678543 238.924561 183.856674 238.990051 C 182.034805 239.05545 179.550446 239.395935 178.335861 239.74649 C 177.121277 240.097046 175.188995 240.52356 174.041885 240.694275 C 172.894775 240.86499 172.090958 241.222687 172.255646 241.489105 C 172.769516 242.320587 171.542694 242.538391 161.950867 243.318451 C 161.441177 243.359863 161.068512 243.62915 161.122742 243.916748 C 161.176941 244.204346 160.724457 244.585876 160.117157 244.764587 C 159.509872 244.943298 158.385757 245.516174 157.619125 246.037659 C 156.616272 246.719818 154.525436 247.085449 150.166016 247.340973 C 146.833435 247.536316 143.532516 247.670135 142.830658 247.638367 C 142.128784 247.606689 140.791534 247.975189 139.858963 248.457428 C 138.895874 248.955444 138.016174 249.115479 137.822601 248.82785 C 137.347351 248.121674 135.403687 247.443359 135.829468 248.132263 C 136.278214 248.858368 135.740967 248.821167 134.271042 248.024384 C 131.304184 246.416199 117.258713 247.638611 115.793488 249.632507 C 115.339844 250.249786 115.290115 250.666199 115.655457 250.787964 C 115.969604 250.8927 116.226639 251.198303 116.226639 251.467133 C 116.226639 251.735931 115.87912 251.82251 115.454376 251.659515 C 115.029617 251.496521 114.518082 251.62851 114.317627 251.952881 C 113.782288 252.819092 117.090881 252.693451 118.87645 251.779755 C 119.696396 251.360199 121.485229 250.834045 122.851624 250.610504 C 124.218033 250.386993 125.770767 250.123444 126.302139 250.024841 C 126.833527 249.926239 127.26828 250.171021 127.26828 250.568756 C 127.26828 251.080322 127.95488 251.238159 129.614624 251.108154 C 131.428345 250.966125 131.739014 251.05307 130.983231 251.491394 C 130.445465 251.803253 130.129791 252.259521 130.281723 252.505371 C 130.609436 253.035614 127.522781 253.568817 121.546997 254.014313 C 118.191666 254.264435 117.096619 254.165436 116.724716 253.578278 C 116.375732 253.027313 116.241226 253.008209 116.235107 253.508789 C 116.222595 254.525177 112.904205 254.361023 111.715439 253.285217 C 111.160156 252.782684 110.705826 252.606537 110.705826 252.893799 C 110.705826 253.210602 108.913818 253.266785 106.151154 253.03656 C 103.646072 252.82782 99.7332 252.520142 97.455856 252.352844 C 95.178513 252.185547 92.499191 251.759857 91.501801 251.40686 C 90.504395 251.053833 89.069962 250.883209 88.314133 251.02771 C 87.558334 251.17218 86.783264 251.036713 86.591782 250.727051 C 86.377731 250.380707 86.522079 250.335754 86.966293 250.610352 C 87.415878 250.888214 87.554977 250.84021 87.334396 250.483276 C 86.918671 249.810608 84.285599 249.201263 81.169434 249.05661 C 79.331238 248.971313 78.951065 248.75528 78.901154 247.767883 C 78.847565 246.70752 79.228333 246.536804 82.489685 246.158752 C 84.496353 245.926147 86.759277 245.789612 87.518387 245.855286 L 88.89859 245.974762 L 87.433731 245.178497 C 84.893494 243.797729 82.416534 243.215118 77.58091 242.860901 C 74.999931 242.671844 71.273369 242.11142 69.299683 241.61554 C 64.760193 240.474945 49.008759 240.387512 48.321785 241.499054 C 48.085373 241.881561 47.599709 242.013947 47.242538 241.793182 C 46.320137 241.223114 36.160446 241.031189 36.506035 241.590363 C 36.829277 242.113403 36.747017 242.122253 29.524887 242.341461 C 24.427551 242.496155 22.275963 242.684784 14.643578 243.646057 C 11.163376 244.084381 9.128605 243.833313 7.139526 242.720154 C 6.306526 242.253998 6.486053 241.988861 8.492153 240.722443 C 10.110226 239.701019 12.086987 239.10022 15.070778 238.723022 C 20.162773 238.079315 25.021149 237.268433 28.521454 236.478027 C 30.615196 236.005219 31.032799 235.712982 30.813408 234.874084 C 30.655937 234.271912 30.225624 233.970886 29.771423 234.145172 C 29.345879 234.308472 28.997704 234.167084 28.997704 233.830933 C 28.997704 233.494781 29.432465 233.215973 29.963844 233.211334 C 30.789513 233.204315 30.809578 233.125122 30.101875 232.667694 C 29.578125 232.329224 29.521027 232.129395 29.946526 232.124054 C 30.317596 232.11908 30.476273 231.742889 30.300362 231.284485 C 30.078407 230.706055 30.629242 230.165436 32.111954 229.5065 L 34.242477 228.559662 L 28.848305 228.226837 C 25.881508 228.043793 21.968628 227.919159 20.153015 227.949921 C 18.337402 227.980713 16.851906 227.974823 16.851906 227.936829 C 16.851906 227.898926 17.348778 227.294952 17.956062 226.594727 C 18.563354 225.894531 19.060234 225.489594 19.060234 225.694855 C 19.060234 225.900146 19.619682 225.701874 20.303452 225.25351 C 20.987228 224.805481 23.388412 224.153168 25.639458 223.803925 C 27.890472 223.454651 30.716164 222.821747 31.918732 222.397461 C 33.121338 221.973145 35.005676 221.617157 36.106163 221.606323 C 39.180748 221.576141 46.925507 219.562347 44.686035 219.375427 C 44.407692 219.352234 43.683083 219.218872 43.075783 219.079132 C 42.468506 218.939392 41.668274 218.758545 41.297508 218.677277 C 40.034378 218.40036 39.953697 217.863007 41.119698 217.49295 C 41.759659 217.289825 42.932617 216.52182 43.726288 215.786285 C 44.519958 215.050751 45.723701 214.448944 46.401306 214.448944 C 47.078896 214.448944 47.916718 214.107422 48.263138 213.690033 C 48.780754 213.066315 48.325539 212.866455 45.708344 212.568359 C 43.956795 212.368866 41.778397 212.085297 40.867462 211.938232 C 38.700287 211.588379 30.076622 211.638947 29.484322 212.005035 C 28.685242 212.498901 22.372726 212.731812 22.372726 212.267426 C 22.372726 212.023376 22.745377 211.514435 23.200844 211.136444 C 23.656319 210.758453 24.028969 210.189758 24.028969 209.872681 C 24.028969 209.555603 23.865494 209.459656 23.665703 209.659424 C 23.465904 209.859253 22.969032 209.745941 22.561546 209.407806 C 22.151299 209.067322 21.820648 209.028412 21.820648 209.320618 C 21.820648 209.610809 21.447983 209.848267 20.992516 209.848267 C 19.666626 209.848267 20.030334 209.257019 21.852348 208.450531 C 23.901337 207.543549 23.607933 207.163116 20.304665 206.443756 C 17.291298 205.787537 16.716858 204.759064 18.877335 203.888245 C 21.113228 202.98703 31.617912 201.817352 37.622917 201.800934 C 40.437645 201.792938 43.399643 201.621552 44.205162 201.419373 L 45.669724 201.051788 L 44.096718 199.765045 C 43.231567 199.057312 42.103615 198.46936 41.590157 198.458435 C 40.281532 198.430634 39.883781 197.55249 40.585724 196.240906 C 41.326912 194.855988 46.129242 192.365692 48.058754 192.365692 C 48.872269 192.365692 49.342644 192.127411 49.148705 191.813599 C 48.961037 191.509949 48.351852 191.261505 47.794968 191.261505 C 46.859634 191.261505 45.819672 189.883209 46.024597 188.915161 C 46.232895 187.931122 37.473488 189.031616 36.740433 190.081604 C 36.180565 190.883514 22.082832 192.979156 20.696938 192.466492 L 19.377174 191.978271 L 20.660973 191.291229 C 21.367043 190.91333 25.953926 189.935822 30.854034 189.118927 C 39.820633 187.624146 42.002907 186.568817 36.127342 186.568817 C 34.321976 186.568817 32.661102 186.253479 32.121178 185.808136 C 31.354279 185.175629 30.292458 185.158173 25.819649 185.704407 C 17.595139 186.708832 12.815334 187.398712 11.694405 187.743164 C 10.951756 187.971375 10.728416 187.80777 10.866276 187.136444 C 11.067196 186.158051 12.775246 185.010101 15.452995 184.053772 C 17.757866 183.230652 16.325157 182.504913 13.378124 183.002747 C 12.100426 183.218597 9.937077 183.570221 8.570675 183.784119 L 6.086304 184.173035 L 8.156616 182.189026 C 9.295284 181.097809 10.226925 180.116241 10.226925 180.007721 C 10.226925 179.8992 8.686356 179.636108 6.803444 179.423096 C 2.351524 178.919403 -0.030575 177.671387 0.000263 175.858765 C 0.016464 174.902863 3.588036 173.620453 6.911297 173.377228 C 8.279427 173.27713 11.386284 172.800476 13.815445 172.318054 C 16.244614 171.835632 19.971474 171.329132 22.097366 171.192505 C 24.223251 171.055878 27.452927 170.682404 29.274422 170.362549 C 40.586914 168.376129 43.133018 167.887177 43.620605 167.607605 C 43.920242 167.435791 43.050713 167.023834 41.688309 166.692108 C 40.317284 166.358276 39.211212 165.765259 39.211212 165.363983 C 39.211212 164.434937 44.775635 162.41687 49.825722 161.514374 C 52.282341 161.075348 54.099953 160.422211 54.695068 159.764587 C 55.22773 159.176025 57.075859 158.433746 58.904343 158.074005 C 63.052887 157.257843 62.940857 156.483734 58.433189 154.818115 C 57.466759 154.460999 56.78801 153.8815 56.92485 153.530304 C 57.23629 152.731018 59.795219 151.511627 61.161102 151.511627 C 61.725777 151.511627 62.034241 151.263184 61.846581 150.959534 C 61.658913 150.655884 59.656754 150.40744 57.397339 150.40744 C 53.674713 150.40744 52.179832 149.842987 53.979408 149.116852 C 55.587402 148.467987 47.530373 148.819275 43.550842 149.571503 C 38.595116 150.50827 35.898727 150.11618 35.898727 148.458771 C 35.898727 147.694702 37.340805 146.691467 41.317741 144.688873 C 45.064125 142.802368 46.512566 141.815338 46.010437 141.491089 C 45.056648 140.875183 45.998032 140.245453 49.700783 139.022461 C 54.927238 137.296204 59.073433 134.402588 58.529091 132.861176 C 58.157288 131.808411 60.194351 131.234161 68.610443 130.019379 C 72.793739 129.415527 76.98317 128.539001 77.920273 128.071503 C 78.857376 127.604004 80.841324 127.075653 82.329056 126.897308 C 86.431274 126.40564 94.280655 124.419922 95.508392 123.563232 C 96.10733 123.145294 97.349518 122.785889 98.268799 122.764557 C 99.188095 122.743256 100.437103 122.512238 101.044388 122.251282 C 101.923615 121.873474 101.698654 121.760223 99.940231 121.695465 C 95.234528 121.522186 92.737503 121.058228 92.113617 120.241272 C 91.687714 119.683594 91.022354 119.512085 90.18132 119.743195 C 89.077499 120.046509 89.034744 120.010376 89.874695 119.484222 C 90.411575 119.147919 91.281097 118.943542 91.806992 119.029999 C 92.332886 119.116516 93.097397 118.977905 93.505905 118.721863 C 93.945343 118.446503 94.804672 118.554047 95.610291 118.985199 C 96.671463 119.553131 97.202393 119.569977 98.016418 119.061707 C 98.677277 118.648987 99.183685 118.608032 99.395126 118.950165 C 99.578949 119.247589 101.143204 119.499756 102.871246 119.510498 C 104.599274 119.52121 106.634216 119.885132 107.393326 120.319061 C 109.047134 121.264465 109.601654 121.333801 109.601654 120.595123 C 109.601654 120.291473 109.21434 120.04303 108.740952 120.04303 C 108.267563 120.04303 108.016342 119.822815 108.182663 119.553711 C 108.348999 119.284576 107.964828 118.928345 107.328964 118.762054 C 106.6931 118.595764 106.280777 118.132782 106.41272 117.733154 C 106.656174 116.995728 109.12912 116.56366 116.778717 115.921997 C 123.689667 115.342285 125.61203 115.030304 125.61203 114.488373 C 125.61203 114.203339 125.23938 113.970123 124.78392 113.970123 C 124.323853 113.970123 123.955795 113.479401 123.955795 112.865967 C 123.955795 112.056244 124.323853 111.76181 125.335999 111.76181 C 126.924103 111.76181 127.194931 110.911591 125.728928 110.528229 C 125.185928 110.38623 122.391022 110.40274 119.518005 110.564819 C 111.150421 111.037048 107.803223 110.879913 106.052704 109.932678 C 105.163544 109.451538 104.276871 109.15625 104.082306 109.276489 C 103.887741 109.396759 103.831207 108.795746 103.956665 107.940948 C 104.230392 106.075775 103.453903 105.784882 97.785339 105.628937 C 94.392731 105.535522 94.12941 105.451813 95.308441 104.840729 C 97.248108 103.83548 104.363235 102.392761 108.606186 102.144409 C 110.774612 102.017456 112.822922 101.564117 113.559753 101.048004 C 115.128128 99.949493 116.073242 99.93576 117.133636 100.996124 C 117.610626 101.473114 118.939911 101.819214 120.268677 101.812347 C 124.360519 101.79126 139.627365 100.238586 141.700195 99.632721 C 143.635849 99.066956 143.69455 98.975616 143.286163 97.164886 C 143.028854 96.023895 143.086746 95.059937 143.433441 94.713226 C 143.827164 94.319489 143.810196 93.90744 143.378845 93.387665 C 142.059937 91.798492 143.737717 91.469482 151.794617 91.737305 C 158.054749 91.945435 160.007614 91.831421 161.277893 91.183624 C 162.621887 90.49826 168.681274 89.552887 172.815063 89.383636 C 173.422363 89.358856 175.161423 89.116364 176.679642 88.844879 L 179.440048 88.351349 L 176.955688 87.949738 C 175.589279 87.728851 171.490067 87.674835 167.846329 87.829712 C 164.202591 87.984558 158.985413 88.078186 156.252609 88.037781 C 153.519806 87.997375 148.178406 88.368988 144.382843 88.863586 C 136.872742 89.842224 129.127792 90.526794 125.793686 90.506653 C 124.631042 90.499664 123.523727 90.710846 123.332993 90.976013 C 123.142273 91.24118 122.210632 91.489838 121.262695 91.528595 C 120.314743 91.567413 119.539154 91.804749 119.539154 92.056152 C 119.539154 92.307556 118.980179 92.356018 118.296982 92.163849 C 117.32457 91.89032 117.234634 91.940369 117.882904 92.394226 C 118.596786 92.894043 118.577744 92.975189 117.744904 92.982483 C 117.213516 92.987488 116.778748 93.267944 116.778748 93.606506 C 116.778748 93.984558 116.253693 93.878052 115.417969 93.330475 C 113.906677 92.34024 113.244064 92.184753 113.703522 92.928162 C 113.869843 93.197296 113.511856 93.546692 112.907974 93.70462 C 112.279587 93.868927 111.809937 93.718719 111.80986 93.353302 C 111.809753 92.983673 110.938126 92.714874 109.739548 92.714874 C 108.423721 92.714874 107.716492 92.956726 107.79863 93.378601 C 107.887634 93.835388 107.292633 93.960999 105.890335 93.781464 C 103.592041 93.487213 101.324692 92.200806 101.312012 91.18396 C 101.306015 90.749268 101.111801 90.803284 100.768387 91.334686 C 100.352997 91.977448 100.231308 91.81485 100.224747 90.608276 C 100.213943 88.617035 101.123566 86.91806 102.200562 86.91806 C 102.663254 86.91806 102.888306 86.669617 102.700638 86.365967 C 102.51297 86.062317 102.808853 85.794891 103.358154 85.771637 C 105.177444 85.694641 106.332901 85.360138 107.563019 84.554138 C 108.665985 83.831451 111.257904 84.109619 111.257904 84.950684 C 111.257904 85.102722 110.925064 85.099426 110.518234 84.942657 C 110.11142 84.78656 109.428223 85.090485 109.000015 85.618073 C 108.329071 86.444702 108.329803 86.511993 109.006012 86.104706 C 109.608932 85.741241 109.700226 85.865906 109.401367 86.644684 C 109.168945 87.250427 109.297607 87.837982 109.721619 88.106995 C 110.777863 88.777222 111.667206 88.651154 110.706467 87.967407 C 110.083328 87.523926 110.403214 87.451111 111.998703 87.673248 C 113.171448 87.836487 114.570129 87.686737 115.128357 87.338104 C 115.892349 86.860992 116.334106 86.87085 116.946106 87.378815 C 117.598053 87.919891 117.837463 87.860016 118.182739 87.06955 C 118.418228 86.530426 118.571457 85.902985 118.523254 85.675262 C 118.475052 85.44751 118.787567 85.2612 119.217712 85.2612 C 119.647888 85.2612 120.094543 84.977051 120.210312 84.629791 C 120.326065 84.282532 121.149612 83.920654 122.040421 83.825684 C 122.931213 83.730682 123.937622 83.273376 124.276886 82.809418 C 124.61615 82.345459 125.095078 82.148346 125.341156 82.371338 C 125.58725 82.59433 125.632584 82.342041 125.441925 81.810699 C 125.015152 80.621338 126.071091 80.510162 126.526337 81.696503 C 126.815659 82.4505 126.972397 82.440643 127.889221 81.610901 C 128.86795 80.725159 128.925629 80.731445 128.933609 81.725037 C 128.940613 82.606201 129.028809 82.642487 129.477234 81.948639 C 130.27507 80.714111 130.161209 80.445221 128.683563 80.074371 C 127.746445 79.839172 127.364395 79.383636 127.425385 78.574219 C 127.522583 77.28476 129.445694 76.320862 131.661484 76.451019 C 133.726852 76.572418 135.55014 75.861908 135.55014 74.93576 C 135.55014 74.339539 136.098846 74.164612 137.620453 74.275696 C 139.845535 74.43808 143.588898 73.816711 144.935532 73.06134 C 145.604279 72.686218 145.551163 72.588593 144.6595 72.553894 C 144.0522 72.530518 142.313156 72.394531 140.794922 72.252197 C 136.100372 71.812103 129.855865 71.825928 127.603165 72.281494 C 126.056686 72.594177 125.561005 72.541565 125.83757 72.094055 C 126.075073 71.709778 125.925766 71.585602 125.446976 71.769348 C 124.992844 71.943604 124.26001 71.438232 123.677383 70.549042 C 122.966064 69.46344 122.872559 68.968109 123.348923 68.809265 C 123.796265 68.660217 123.688095 68.330902 123.019547 67.806458 C 122.112213 67.094727 122.170715 67.051117 123.680389 67.313416 C 124.591309 67.471741 125.026077 67.454834 124.64653 67.275818 C 123.248337 66.616699 124.018387 65.938324 126.164612 65.938324 C 127.558716 65.938324 128.376053 66.19278 128.381378 66.628418 C 128.387375 67.13623 128.515213 67.120667 128.864456 66.569519 C 129.162643 66.098907 129.46814 66.029327 129.68631 66.382324 C 130.056915 66.981964 130.75972 66.935333 132.48526 66.196594 C 133.076981 65.943298 134.377701 65.719421 135.375732 65.699158 C 137.663895 65.65274 138.406815 64.282104 136.143814 64.282104 C 135.248795 64.282104 134.426224 63.923126 134.246185 63.453979 C 134.031738 62.895203 134.27298 62.625854 134.987808 62.625854 C 135.570465 62.625854 136.245895 62.315308 136.488708 61.93576 C 137.121841 60.946075 139.371735 59.773804 139.950958 60.131805 C 140.221283 60.298859 140.59848 60.183228 140.789215 59.874451 C 140.979935 59.565887 141.821533 59.313354 142.659439 59.313354 C 143.497345 59.313354 145.532288 58.909912 147.181534 58.41684 C 149.784714 57.638458 150.018616 57.459656 148.955185 57.06076 C 148.281448 56.808075 143.671661 56.634979 138.711197 56.676147 C 133.750748 56.717651 129.367584 56.550476 128.97084 56.305267 C 128.560013 56.051361 128.086868 56.122528 127.871735 56.470642 C 127.428116 57.188416 110.265991 57.732544 109.839417 57.042328 C 109.689468 56.799683 109.181259 56.749084 108.710052 56.929962 C 108.129807 57.152618 108.053436 57.382416 108.473404 57.641937 C 108.814453 57.852722 108.338409 58.025177 107.415527 58.025177 C 106.492661 58.025177 105.737564 57.78772 105.737564 57.497498 C 105.737564 57.207245 105.358917 57.284119 104.896103 57.668213 C 104.433304 58.052277 103.878036 58.189941 103.662155 57.97406 C 103.446304 57.758179 103.887085 57.111664 104.641663 56.537292 L 106.013611 55.492889 L 104.633408 55.75824 C 103.423935 55.990723 103.389786 55.958618 104.357376 55.498901 C 105.9496 54.742462 108.566284 54.82074 110.100189 55.670776 C 111.5952 56.499237 113.466721 56.226257 113.466721 55.179718 C 113.466721 54.697632 114.556854 54.481079 117.055252 54.46698 C 119.306778 54.454285 120.643784 54.672699 120.643784 55.053253 C 120.643784 55.386902 120.95433 55.252777 121.333878 54.755219 C 121.832367 54.101746 123.327103 53.752136 126.71669 53.496216 C 129.297668 53.301361 132.977524 52.791443 134.89415 52.363068 C 136.810776 51.934753 139.170914 51.560364 140.138931 51.531219 C 141.106934 51.501923 143.141113 51.139008 144.659348 50.724396 C 147.247833 50.017548 146.955566 49.989349 139.966644 50.271759 C 135.867447 50.437378 132.140884 50.576996 131.685425 50.58197 C 131.229965 50.586975 125.5159 51.173431 118.987534 51.885132 C 112.459167 52.596924 105.341766 53.255157 103.171112 53.34787 C 101.000443 53.440674 99.338165 53.70282 99.477142 53.930542 C 99.616119 54.158264 98.659317 54.345642 97.350906 54.346802 C 96.042496 54.346802 92.736038 54.709015 90.003235 55.148865 C 85.317017 55.903168 74.293541 56.68103 75.790573 56.151733 C 76.17202 56.016937 76.343681 55.679321 76.17205 55.401642 C 76.00042 55.123962 76.557854 54.884796 77.410789 54.870209 C 78.263733 54.855988 79.831131 54.372284 80.893875 53.796082 C 81.95665 53.21991 83.323044 52.516785 83.930344 52.233643 C 85.926437 51.302826 118.48764 45.916107 126.164612 45.246674 C 128.44194 45.048065 135.025513 44.393433 140.794769 43.792023 C 146.564026 43.190552 154.178741 42.457397 157.716354 42.162781 C 161.253967 41.868042 165.34375 41.267212 166.804733 40.827576 C 168.723953 40.249969 169.566742 40.199005 169.841782 40.644043 C 170.190475 41.208282 175.998795 41.053802 183.029037 40.293335 C 184.091797 40.178345 187.445694 39.929077 190.482147 39.73938 C 195.930634 39.399017 204.23172 38.253784 208.878052 37.201538 C 210.190125 36.904419 211.496155 36.805023 211.780365 36.980652 C 212.064575 37.156342 215.911041 36.752563 220.328064 36.083466 C 226.863403 35.093445 228.594238 34.992767 229.622345 35.54306 C 230.656097 36.096283 231.980042 36.003448 236.907806 35.032349 C 245.110687 33.415802 255.814575 31.31424 261.148651 30.27298 C 263.577789 29.798767 267.106964 29.05838 268.991241 28.627777 C 270.875519 28.197113 273.235657 27.845978 274.236023 27.847443 C 275.236389 27.847443 277.172821 27.492432 278.539215 27.055115 C 280.84201 26.318146 285.556793 25.500031 298.138123 23.654327 C 304.601593 22.706146 305.903595 22.487274 312.492249 21.241821 C 315.528717 20.667847 320.497437 19.788208 323.533905 19.287048 C 326.570343 18.785858 329.800018 18.252625 330.710968 18.10202 C 337.157135 17.036713 338.384766 17.056488 339.666809 18.246582 C 340.358521 18.888702 340.924469 19.696136 340.924469 20.040863 C 340.924469 20.38559 341.110809 20.638214 341.338531 20.602264 C 341.566284 20.566681 342.320313 20.566681 343.014221 20.602264 C 344.069214 20.656891 344.185425 20.836548 343.723724 21.699188 C 343.047882 22.962097 343.588501 23.64325 344.60022 22.803589 C 345.738586 21.858856 345.47934 22.708588 344.169708 24.214844 C 343.482727 25.004913 342.102966 25.713318 340.833252 25.927826 C 338.979401 26.241058 338.767853 26.413696 339.361481 27.128937 C 340.252411 28.202423 339.499725 28.269043 374.877502 23.988403 C 377.306671 23.694458 381.654327 23.334839 384.53894 23.18924 C 387.423584 23.04364 392.640747 22.662964 396.13266 22.343353 C 399.624573 22.023773 404.220673 21.663849 406.346191 21.543549 C 408.47168 21.423279 411.193176 21.067444 412.393951 20.752869 C 413.594696 20.438324 418.358307 20.165619 422.979706 20.146973 C 427.601135 20.128357 431.711639 20.002319 432.114166 19.866974 C 433.107605 19.533051 446.044678 18.855316 449.123016 18.975952 C 450.484192 19.029449 451.977844 19.416718 452.4422 19.836945 C 453.482635 20.778534 456.132538 20.872925 468.455383 20.40744 C 474.119934 20.19339 479.322083 19.706757 481.030212 19.231079 C 483.259094 18.610382 486.955994 18.44046 496.764526 18.507935 C 503.81604 18.556732 515.547974 18.40863 522.835449 18.179565 C 537.603638 17.715271 536.814087 17.709991 552.095825 18.373383 C 561.989868 18.802856 567.697815 18.820679 576.38739 18.44928 C 577.90564 18.384369 578.713074 18.217621 578.181641 18.078766 C 577.65033 17.939941 577.215515 17.56662 577.215515 17.249207 C 577.215515 16.8685 578.765198 16.781555 581.770203 16.993713 C 584.275269 17.170624 591.790466 17.567078 598.470703 17.874817 C 605.150879 18.182556 613.721924 18.689209 617.517517 19.000702 C 632.766418 20.252136 638.58197 20.693207 646.50177 21.198792 C 666.308655 22.463318 676.749939 22.967194 687.631897 23.183655 C 692.64209 23.283356 698.852966 23.53418 701.43396 23.741028 C 704.014893 23.947906 707.865723 24.094879 709.991211 24.067627 C 712.11676 24.040833 716.340149 24.262421 719.376648 24.561096 C 722.413086 24.859772 732.24707 25.213531 741.229797 25.34726 C 750.212585 25.481018 758.659485 25.832581 760.000549 26.12851 C 761.341736 26.424469 764.390869 26.801178 766.776428 26.965637 C 769.162048 27.130066 771.894836 27.392426 772.849365 27.548645 C 776.113708 28.082764 781.210083 28.445953 788.662903 28.675476 C 795.22583 28.877594 801.602661 29.362701 811.022217 30.376526 C 812.540466 30.539856 814.652161 30.742889 815.714905 30.827576 C 816.777649 30.912384 819.510498 31.141113 821.787842 31.336029 C 824.065186 31.530945 827.915588 31.842377 830.34436 32.028168 C 832.773071 32.213867 834.884827 32.442383 835.037048 32.53595 C 835.18927 32.629547 836.726685 32.85611 838.453552 33.039734 C 840.18042 33.223297 841.957214 33.513153 842.401917 33.683838 C 842.84668 33.854492 845.408752 34.068115 848.095459 34.1586 C 855.474548 34.406982 855.464844 34.405457 855.464844 35.297821 C 855.464844 35.753265 855.727905 36.125916 856.049438 36.125916 C 856.371094 36.125916 856.454529 35.835297 856.234924 35.480072 C 855.962769 35.039642 856.142456 34.951813 856.799622 35.20401 C 857.329773 35.407471 858.31134 35.573883 858.981079 35.573883 C 859.802795 35.573883 860.225647 35.93277 860.281738 36.67804 C 860.381104 37.997803 860.081543 38.061127 858.974426 36.954071 C 857.818909 35.798492 856.526184 35.885101 856.914429 37.092102 C 857.105652 37.686584 857.045898 37.820892 856.759094 37.441254 C 856.441406 37.020813 854.88623 36.941864 851.876282 37.193451 C 846.695129 37.626526 842.784302 37.507324 835.589844 36.697113 C 832.705261 36.372284 828.978699 35.9729 827.308594 35.80957 C 825.638611 35.646332 823.982178 35.41803 823.627808 35.302094 C 823.273376 35.186279 822.838745 35.468262 822.662109 35.928711 C 822.424133 36.548828 821.899902 36.669128 820.640869 36.392578 C 818.663269 35.958221 817.39209 35.79306 812.126404 35.286224 C 810.000854 35.081635 808.113159 34.822845 807.93158 34.711182 C 807.544556 34.473236 800.160339 34.434143 790.043091 34.616486 C 783.624023 34.732117 779.098022 34.416107 775.72113 33.616486 C 773.818359 33.165955 760.506714 32.971039 760.506714 33.393768 C 760.506714 33.611176 762.183655 33.968475 764.233276 34.187866 C 766.282898 34.407318 768.456726 34.684753 769.064026 34.804535 C 773.323975 35.644745 784.732727 36.586456 793.907715 36.855194 C 796.033203 36.917511 798.034912 37.136597 798.356018 37.342163 C 798.889832 37.684021 815.79541 39.002289 816.702454 38.772827 C 816.918396 38.71814 818.958374 38.847229 821.235718 39.059692 C 824.756531 39.388062 833.747681 40.04892 836.003967 40.145142 C 836.81958 40.17984 836.915771 40.892517 836.167175 41.355164 C 835.629944 41.687195 831.468323 41.763855 827.702209 41.511078 C 826.552246 41.433868 825.409485 41.043732 825.162659 40.644073 C 824.828796 40.103455 823.880127 40.013184 821.456543 40.291504 C 819.6651 40.497253 818.03302 40.764374 817.829712 40.885193 C 817.626526 41.006042 817.083374 40.727997 816.622742 40.267426 C 816.16217 39.806854 815.65387 39.6427 815.493164 39.902771 C 815.181274 40.407318 804.03833 40.192413 800.808716 39.619598 C 799.745911 39.431091 797.872681 39.225616 796.645874 39.163025 C 795.419067 39.100433 793.866333 38.755371 793.195374 38.396271 C 792.21991 37.874237 791.975342 37.891144 791.975342 38.48056 C 791.975342 38.914459 791.237244 39.277252 790.181152 39.362518 C 785.815735 39.714752 779.705566 39.681335 774.86084 39.278809 C 771.376343 38.989319 769.888672 39.025482 770.428223 39.386871 C 772.604431 40.843994 768.521545 41.562653 762.162964 40.841614 C 756.526001 40.202362 755.518311 40.168701 753.082031 40.538422 C 751.825134 40.729187 750.062378 40.688477 749.164856 40.447937 C 746.800537 39.814423 734.510986 38.692535 729.038086 38.610657 C 726.457031 38.572083 722.73053 38.370514 720.756836 38.162964 C 718.783142 37.955414 714.808167 37.65802 711.923523 37.502167 C 709.038879 37.346313 702.206848 36.853546 696.741211 36.407104 C 691.275696 35.960663 683.146057 35.428436 678.675537 35.224426 C 671.390381 34.891968 670.510742 34.948853 670.194519 35.772888 C 669.893799 36.55661 668.934265 36.688782 663.692627 36.668793 C 660.310547 36.656067 656.425476 36.846802 655.059082 37.093079 L 652.574707 37.540985 L 656.715332 38.156555 C 658.992676 38.495148 661.725464 38.76535 662.788208 38.757019 C 663.850952 38.748016 668.198608 39.126587 672.449646 39.596802 C 676.700684 40.066956 684.774902 40.729065 690.392334 41.068085 C 696.009766 41.407074 701.158508 41.803314 701.833862 41.948669 C 702.509338 42.094025 708.099182 42.454803 714.255737 42.750366 C 725.320679 43.281677 733.073792 43.71521 738.975525 44.132782 C 740.645569 44.250946 746.374695 44.599213 751.706848 44.906769 C 757.039063 45.214264 761.759399 45.576538 762.196411 45.711731 C 762.633545 45.846954 763.487976 46.145477 764.095276 46.375122 C 764.702515 46.604767 766.154541 46.861542 767.321838 46.945923 C 768.489136 47.030304 769.7323 47.493134 770.084351 47.974579 C 770.592651 48.669739 772.030945 48.879333 777.071289 48.992645 C 780.562012 49.071136 783.666565 49.288208 783.970215 49.474823 C 784.273865 49.661499 786.385559 49.960022 788.662903 50.138214 C 799.549438 50.990021 810.432312 51.681854 815.438843 51.840424 C 818.475342 51.936615 824.934692 52.449097 829.79303 52.97937 C 834.651306 53.509613 840.862244 54.025909 843.595032 54.126678 C 862.509399 54.824249 877.615601 55.702698 885.553284 56.56662 C 888.286072 56.864075 893.076111 57.267212 896.197815 57.462494 C 899.319519 57.657776 902.004883 58.029968 902.165283 58.28949 C 902.325684 58.549103 901.634888 58.781616 900.630066 58.806305 C 899.625305 58.831207 898.101929 58.902008 897.24469 58.964325 C 896.387451 59.02652 895.578125 58.90274 895.446045 58.689087 C 895.314026 58.475494 894.288147 58.55423 893.166138 58.863983 C 892.027466 59.178375 889.529419 59.266174 887.511658 59.062775 C 885.523621 58.862274 874.953308 58.601044 864.022095 58.482147 C 853.090881 58.363312 840.047913 58.105652 835.037781 57.909607 C 826.107422 57.56012 823.576904 57.773895 829.435181 58.382782 C 831.060303 58.551727 832.510071 58.81012 832.656982 58.957001 C 833.05072 59.350769 831.031921 60.324921 829.3573 60.549164 C 827.406006 60.810455 826.790283 61.509827 828.45874 61.569763 C 829.192627 61.596161 833.022705 61.849182 836.970032 62.132202 C 840.91748 62.415222 848.681091 62.793518 854.222656 62.972961 C 863.332092 63.267914 864.298157 63.391907 864.298157 64.266754 C 864.298157 65.481079 866.520691 65.76825 879.9151 66.284485 C 885.316223 66.492706 889.864868 66.87262 890.023254 67.128876 C 890.181641 67.385071 891.39978 67.594757 892.730347 67.594757 C 897.26593 67.594757 895.994568 69.119202 890.423157 70.361206 C 888.850525 70.711731 886.738831 70.95285 885.730469 70.896942 C 879.00647 70.524353 880.770264 71.611359 888.313721 72.488983 C 891.350159 72.842316 895.573608 73.251678 897.699036 73.398773 C 899.824585 73.545837 903.675354 73.913788 906.256348 74.216431 C 908.837341 74.519104 914.054504 74.930603 917.850098 75.130798 C 922.524048 75.37738 924.92926 75.728363 925.303162 76.218292 C 925.609009 76.61911 927.578735 77.10202 929.719849 77.301208 C 931.845337 77.498901 933.832825 77.963989 934.136536 78.334747 C 934.440125 78.705475 936.502991 79.176453 938.720642 79.381256 C 940.938293 79.586151 943.309631 80.118622 943.990295 80.564575 C 944.770203 81.075623 947.157898 81.465271 950.447693 81.618347 C 957.541077 81.948456 963.098694 82.570587 963.406799 83.069031 C 963.73053 83.592834 958.896423 84.341125 958.153687 83.882141 C 957.849121 83.693909 957.599976 83.775421 957.599976 84.063171 C 957.599976 84.350952 958.469604 84.749542 959.532288 84.948914 C 961.630493 85.342529 962.027222 86.029297 960.498474 86.621918 C 958.694519 87.321259 961.219116 88.428955 966.894775 89.428284 C 971.661926 90.267609 974.674561 91.304993 972.478577 91.351044 C 970.414673 91.394348 973.600891 92.367523 976.917725 92.706879 C 978.886841 92.908356 980.786743 93.312836 981.139648 93.605713 C 981.492554 93.898621 983.352539 94.391296 985.272949 94.700592 C 990.608887 95.559906 990.551147 96.250336 985.107788 96.678192 C 983.073975 96.838013 981.2146 97.311584 980.655396 97.812134 C 979.87085 98.514404 978.911621 98.598419 975.410645 98.271454 C 968.29187 97.606659 966.882507 97.736023 965.814087 99.152374 C 965.291199 99.845581 964.970886 100.586517 965.102112 100.79892 C 965.233398 101.011322 967.015076 101.358978 969.061523 101.571503 C 971.10791 101.784058 973.030701 102.152924 973.334412 102.391266 C 973.638 102.629639 975.066528 103.000336 976.508789 103.215027 C 980.467041 103.804321 979.654663 104.584229 975.082642 104.584229 C 972.855774 104.584229 970.845886 104.770569 970.616028 104.998291 C 970.38623 105.226013 968.070496 105.412354 965.470093 105.412354 C 962.182129 105.412354 960.669922 105.622528 960.50531 106.102448 C 960.342896 106.575409 960.934387 106.793518 962.384705 106.795624 C 963.548706 106.796631 965.370605 107.026611 966.433289 107.305145 C 967.496094 107.583679 970.468506 107.96875 973.038696 108.160858 C 975.608887 108.352966 977.991943 108.742615 978.334351 109.026764 C 978.676636 109.310913 979.10144 109.398651 979.278442 109.221741 C 979.455322 109.04483 980.177856 109.106445 980.883911 109.358704 C 981.875122 109.712799 981.286865 109.897491 978.303101 110.169006 C 974.781982 110.489441 970.765991 111.295135 968.641602 112.107361 C 967.293518 112.622803 969.390076 113.189362 975.680664 114.00946 C 978.792969 114.415222 981.339478 114.894592 981.339478 115.074677 C 981.339478 115.254791 982.954346 115.299316 984.928101 115.173676 C 987.812012 114.990021 988.516602 115.103577 988.516602 115.752045 C 988.516602 116.752777 986.769165 118.389221 985.712646 118.377838 C 985.063599 118.37085 985.071167 118.276917 985.755737 117.834198 C 986.460449 117.378784 986.437256 117.297791 985.600342 117.290588 C 985.059448 117.285583 984.468872 117.667694 984.288086 118.138885 C 984.008057 118.868866 983.009766 118.952942 977.542358 118.70697 C 970.691223 118.398743 969.007324 118.764069 970.26947 120.284912 C 972.383484 122.832184 981.00415 125.563354 986.93042 125.563354 C 990.510742 125.563354 992.380737 126.232971 992.380737 127.515076 C 992.380737 128.15686 991.497559 128.321045 988.102051 128.310608 C 985.748779 128.303589 982.829712 128.035767 981.615112 127.715973 C 980.400513 127.396149 974.677856 127.021942 968.89801 126.884399 C 958.677002 126.641144 958.38678 126.664703 958.305481 127.744202 C 958.225525 128.805908 958.899414 129.570587 960.083923 129.762238 C 960.387573 129.81134 962.769287 130.25354 965.376709 130.744843 C 973.90979 132.352753 981.48645 133.332184 989.240967 133.829865 C 996.425537 134.290955 998.875732 134.923218 998.133301 136.124481 C 997.963745 136.398682 997.587769 136.476288 997.297607 136.296936 C 997.007446 136.117584 996.838257 136.299927 996.921753 136.701996 C 997.005737 137.106354 996.644287 137.399292 996.113159 137.357452 C 995.585083 137.315826 995.272339 137.474884 995.418213 137.710968 C 995.564209 137.947021 994.84021 138.298401 993.809448 138.49176 C 991.581421 138.909729 991.053101 139.904877 992.194214 141.534088 C 992.802246 142.402222 992.867188 142.919861 992.43335 143.442505 C 991.722046 144.299622 992.186646 144.88623 993.576904 144.88623 C 994.133545 144.88623 994.588989 144.990143 994.588989 145.117096 C 994.588989 145.24411 994.753906 145.777771 994.955444 146.303009 C 995.292236 147.180359 994.921509 147.228241 990.400757 146.891907 C 987.694214 146.690552 984.547974 146.378143 983.409302 146.197693 C 981.761719 145.936554 981.338989 146.04538 981.338989 146.730682 C 981.338989 147.204285 980.938599 147.815857 980.449097 148.089783 C 979.185303 148.797058 979.944092 151.978088 981.529053 152.617401 C 982.662354 153.074524 982.666504 153.101013 981.615112 153.171265 C 980.510864 153.245056 980.510864 153.245056 981.615112 153.719543 C 982.692139 154.182373 981.187622 154.380188 975.542236 154.518036 C 973.187317 154.575562 971.401489 155.318695 971.401489 156.241119 C 971.401489 156.734039 970.829529 157.034882 969.883301 157.039581 C 969.048279 157.044556 967.800293 157.198425 967.109985 157.383362 C 965.932922 157.698761 965.91571 157.765717 966.833984 158.462433 C 967.372375 158.870972 968.492615 159.213135 969.323303 159.222809 C 970.15387 159.232788 972.472595 160.109894 974.475952 161.172638 C 976.49646 162.244537 978.922119 163.10495 979.923706 163.10495 C 983.269409 163.10495 988.488037 163.807831 988.230957 164.223816 C 988.090576 164.450806 988.398438 164.602448 988.914917 164.560822 C 989.431396 164.519226 989.942627 164.913269 990.050781 165.436523 C 990.302124 166.651245 987.042358 168.745483 985.36084 168.449463 C 984.688354 168.331024 984.047607 168.505249 983.937256 168.836456 C 983.67688 169.617462 977.233643 169.838226 974.656616 169.15448 C 973.562195 168.864136 967.910217 168.559235 962.09668 168.476929 C 952.268188 168.337799 949.369995 168.619659 953.0448 169.357239 C 953.879883 169.524841 955.68103 169.914886 957.047424 170.223999 C 958.413818 170.533081 960.587585 170.796814 961.878113 170.810028 C 963.168579 170.823334 964.224487 171.08252 964.224487 171.386169 C 964.224487 171.689819 964.613525 171.938263 965.088928 171.938263 C 965.56427 171.938263 966.463379 172.211212 967.086609 172.5448 C 968.207703 173.144745 968.205688 173.158417 966.912292 173.803284 C 964.647522 174.932434 965.349304 175.99765 969.155518 177.207855 C 971.108398 177.828796 972.822571 178.698334 972.964783 179.140137 C 973.106995 179.58194 973.442993 180.087494 973.711426 180.263611 C 974.555786 180.817688 973.544983 182.521027 972.589294 182.154297 C 972.106384 181.968994 971.863586 181.969757 972.049927 182.156311 C 972.236206 182.34259 971.76239 183.121216 970.996887 183.886597 C 969.990173 184.893402 968.952026 185.303497 967.242676 185.369659 C 965.943115 185.419952 964.980225 185.623566 965.103027 185.822144 C 965.225708 186.020721 962.948486 186.061432 960.04248 185.912659 C 955.817688 185.69635 954.573181 185.809845 953.832825 186.479034 C 952.804626 187.408356 947.38269 187.791443 944.554504 187.134644 C 943.474548 186.88385 942.686401 186.961273 942.451599 187.341187 C 942.244995 187.675446 941.489868 187.948883 940.773499 187.948883 C 939.11261 187.948883 937.724487 188.478455 937.724487 189.112122 C 937.724487 189.38327 938.084778 189.605133 938.525208 189.605133 C 938.965576 189.605133 939.536682 189.981842 939.794312 190.44223 C 940.085022 190.961609 942.243164 191.664612 945.480591 192.294495 C 951.859192 193.535492 956.55481 195.432861 956.110779 196.589844 C 955.940308 197.03421 955.447205 197.262085 955.015198 197.096313 C 954.58313 196.930511 954.368408 197.019501 954.538025 197.293854 C 954.707703 197.568329 954.19519 198.566895 953.399109 199.512939 C 952.333679 200.779083 951.658875 201.140045 950.84198 200.880737 C 950.226929 200.685547 949.870605 200.752655 950.042786 201.031281 C 950.213684 201.3078 949.489502 201.558563 948.433411 201.588501 C 947.377319 201.618378 944.76947 202.070251 942.638123 202.59256 L 938.763 203.542206 L 939.996277 204.854889 C 940.6745 205.576874 941.459167 206.167603 941.739929 206.167603 C 942.02063 206.167603 943.102905 206.572174 944.145081 207.066681 C 945.961914 207.928864 946.005188 208.018372 945.200745 209.246216 C 944.672058 210.05304 944.567017 210.653534 944.916687 210.869659 C 945.221985 211.058289 945.312317 211.470428 945.117615 211.785492 C 944.889221 212.15509 944.592102 212.09259 944.280457 211.609314 C 943.967041 211.123322 943.651978 211.058105 943.383362 211.423615 C 943.155579 211.733429 942.223938 212.346344 941.313049 212.785675 L 939.656799 213.584442 L 941.404114 213.772064 C 943.296021 213.97522 944.307434 215.391937 942.936157 215.918121 C 942.472717 216.095978 941.956177 216.104187 941.788391 215.93634 C 941.620605 215.768524 940.656311 216.095734 939.64563 216.663422 C 938.634827 217.23114 936.863708 217.872742 935.709778 218.089233 C 934.555725 218.305725 933.277039 218.817352 932.868225 219.226227 C 931.899719 220.194702 931.52063 220.17334 926.390808 218.861359 C 921.786987 217.683899 920.489319 217.79364 918.600403 219.520172 C 917.534851 220.49408 917.104919 220.542053 914.220337 220.00882 C 910.436523 219.309326 903.307983 219.219727 903.714111 219.87677 C 903.870178 220.129333 905.810242 220.64502 908.02533 221.022736 C 913.668762 221.985016 914.303833 222.191742 913.377136 222.764496 C 911.770752 223.757294 918.963867 226.100922 925.993713 226.875183 C 927.89209 227.084259 929.565674 227.450104 929.712769 227.688202 C 929.859924 227.92627 929.45929 228.783447 928.822449 229.593048 C 927.75293 230.952759 927.732422 231.139984 928.553955 232.04776 C 929.04303 232.588257 929.443298 233.166351 929.443298 233.332428 C 929.443298 234.01474 920.094666 233.032928 917.021423 232.027893 C 912.602173 230.582672 903.653809 229.527863 902.826965 230.354706 C 902.389709 230.792023 902.385803 231.167572 902.813232 231.68277 C 903.390564 232.378387 904.275879 232.675934 911.638489 234.648804 C 913.93457 235.264069 915.088989 235.851624 915.088989 236.404938 C 915.088989 237.104218 914.437561 237.177429 910.992737 236.865265 C 908.368347 236.627441 906.769653 236.69928 906.543457 237.065155 C 906.349365 237.379242 906.49469 237.63623 906.867126 237.63623 C 907.23938 237.63623 907.415283 237.764832 907.258118 237.921997 C 906.888 238.292114 899.069092 236.651245 898.291687 236.040314 C 897.680359 235.559937 889.618469 234.318207 887.898987 234.439575 C 887.367615 234.477081 886.9328 234.818695 886.9328 235.19873 C 886.9328 235.578766 886.804321 236.224548 886.647278 236.63385 C 886.375916 237.340912 893.118164 238.770386 904.736389 240.469055 C 906.481812 240.724274 908.810181 241.309235 909.910645 241.769012 C 911.011047 242.22879 912.688416 242.606354 913.638184 242.608063 C 916.13855 242.613037 919.729675 243.705933 919.149536 244.286133 C 918.880798 244.55481 915.518738 244.845459 911.678162 244.932007 C 907.837585 245.018494 904.736633 245.1315 904.787048 245.183014 C 904.837341 245.234528 906.106445 245.758942 907.606873 246.348328 C 910.21991 247.374695 910.28241 247.44809 909.088318 248.087128 C 908.153198 248.587585 907.153931 248.606812 905.089294 248.16391 C 901.729187 247.443329 901.286926 247.433777 901.286926 248.081818 C 901.286926 248.361328 902.029419 248.753113 902.936829 248.952423 C 905.954834 249.615295 905.301208 250.334015 901.68042 250.334015 C 899.57312 250.334015 897.442139 250.684204 896.406982 251.200592 C 895.359558 251.723114 894.184814 251.913239 893.44812 251.679413 C 891.873169 251.179535 865.952087 250.988922 866.255249 251.479431 C 866.8974 252.518555 859.654968 252.513214 853.475098 251.469421 C 840.960083 249.356781 830.312134 248.155914 823.44342 248.082458 C 819.647827 248.04187 813.933777 247.667267 810.745483 247.25 C 807.557251 246.832764 801.877319 246.235229 798.123413 245.92215 C 794.369507 245.6091 791.139832 245.257385 790.94635 245.140594 C 790.752808 245.023834 788.731262 244.769684 786.453918 244.575836 C 784.176575 244.381989 781.443726 244.118286 780.380981 243.989838 C 778.168701 243.722443 768.095886 243.160797 760.782104 242.897064 C 755.491455 242.706268 747.452332 242.198456 742.011353 241.711395 C 740.189453 241.548279 733.109009 241.308899 726.276978 241.179413 C 719.444946 241.049896 711.370728 240.740295 708.334351 240.491455 C 705.297852 240.242584 696.900024 240.06366 689.672485 240.093872 C 678.742371 240.139465 676.443481 240.285706 676.008484 240.962494 C 675.564697 241.652893 675.410278 241.659454 674.989197 241.00589 C 674.658691 240.492767 673.948364 240.344543 672.86145 240.56192 C 671.961853 240.741821 670.958679 240.617126 670.625549 240.283966 C 670.293152 239.951599 669.20105 239.627289 668.198669 239.563232 C 667.196228 239.499146 665.879211 239.299683 665.271912 239.119843 C 661.96344 238.140137 658.516235 237.855255 657.127502 238.446777 C 656.012695 238.9216 653.230103 238.360657 653.614563 237.738586 C 653.756165 237.50943 651.095581 237.255127 647.702271 237.173523 C 638.564392 236.953766 637.616821 236.853363 636.582642 235.995056 C 635.742004 235.297363 635.658081 235.329468 635.824463 236.285034 C 635.951294 237.013367 635.744751 237.296326 635.183472 237.163391 C 634.727966 237.055511 633.796326 236.962341 633.113159 236.95636 C 632.429932 236.950348 631.870972 236.754639 631.870972 236.521454 C 631.870972 236.288239 631.470642 235.943817 630.981384 235.756073 C 630.335388 235.508179 630.182495 235.651062 630.422974 236.277771 C 630.651184 236.872437 630.541565 237.005707 630.070374 236.706329 C 629.694275 236.467346 627.026428 236.193817 624.141846 236.09848 C 618.075317 235.89798 618.977112 235.900574 590.464844 236.001099 C 578.470825 236.043396 567.121582 235.89859 565.244141 235.679291 C 563.366821 235.459991 561.413086 235.440857 560.902466 235.636688 C 559.96283 235.997253 541.927673 236.709198 536.386658 236.604431 C 532.053284 236.522552 527.138733 239.070068 529.872375 239.981262 C 530.279846 240.117065 529.997986 240.507751 529.182251 240.938049 C 528.42395 241.338013 527.665649 241.875 527.497009 242.131287 C 526.887756 243.057617 522.199768 243.574463 520.868652 242.862061 C 520.029785 242.413116 517.806885 242.251892 514.311279 242.386414 C 511.402649 242.498383 501.84906 242.721039 493.081116 242.881256 C 484.31311 243.041443 476.53595 243.323944 475.798584 243.509003 C 475.061218 243.694092 471.927124 243.883514 468.833923 243.929993 C 465.740723 243.976501 462.713074 244.293732 462.105774 244.63504 C 461.019165 245.245697 455.8992 246.248108 455.042053 246.017975 C 453.985748 245.734375 452.024445 245.805664 450.236023 246.192688 C 449.173248 246.422668 447.806854 246.569183 447.199554 246.518311 C 446.592285 246.467407 445.598541 246.381989 444.991241 246.32843 C 444.383942 246.274933 441.526917 246.522766 438.642303 246.879364 C 435.75766 247.235992 432.323456 247.522583 431.010742 247.516266 C 429.697998 247.510254 428.331604 247.739868 427.974304 248.027161 C 427.616974 248.314484 426.517212 248.722198 425.530365 248.933197 C 424.061737 249.247223 423.736084 249.147278 423.736084 248.382568 C 423.736084 247.554901 423.279358 247.492859 419.73349 247.83902 C 417.532074 248.053925 411.75592 248.286987 406.897583 248.356964 C 402.039276 248.426971 396.726074 248.776062 395.090485 249.132721 C 393.454926 249.48938 391.995972 249.781219 391.848419 249.781219 C 391.700867 249.781219 391.889343 250.15387 392.267426 250.609344 C 392.645416 251.064819 393.793793 251.437439 394.819366 251.437439 C 395.844971 251.437439 396.684082 251.541351 396.684082 251.668335 C 396.684082 251.795319 396.834869 252.292206 397.019165 252.772522 C 397.47876 253.970184 395.924316 253.911316 394.697571 252.684509 C 394.002563 251.989502 393.672791 251.914001 393.506805 252.411896 C 393.380554 252.790649 393.050049 252.960114 392.772339 252.788452 C 392.49469 252.616974 392.267487 252.677521 392.267487 252.923187 C 392.267487 253.168854 391.708496 253.400269 391.025299 253.4375 C 390.342102 253.474701 386.553436 253.786377 382.606049 254.130035 C 378.658661 254.473694 370.708679 254.85437 364.939423 254.976013 C 359.170166 255.097626 353.828766 255.333344 353.069672 255.499817 C 350.497589 256.063934 336.35611 257.37204 328.778046 257.746826 C 314.736206 258.441315 304.090485 260.449615 301.895325 262.818237 C 301.208679 263.559143 299.99884 264.157349 299.130005 264.185608 C 291.985718 264.417786 282.064606 265.161804 277.71048 265.791931 C 275.888611 266.055603 272.692566 266.423645 270.608154 266.609863 C 268.523743 266.796082 265.570709 267.184998 264.045837 267.474182 C 262.520966 267.763367 261.183044 268 261.072662 268 C 260.96228 268 260.871979 267.364258 260.871979 266.587219 Z M 260.872131 261.564941 C 260.872131 260.960999 260.627594 260.915863 259.788544 261.364899 C 259.141113 261.711395 258.83371 262.280457 259.024872 262.778625 C 259.271423 263.421143 259.52005 263.467041 260.10849 262.978638 C 260.528503 262.630066 260.872131 261.993896 260.872131 261.564941 Z M 353.897949 253.353668 C 356.057831 252.578949 356.003326 252.567627 351.413574 252.836761 C 340.903259 253.453064 337.611511 253.765289 337.611511 254.145966 C 337.611511 254.866211 351.574799 254.186859 353.897949 253.353668 Z M 97.455887 246.686676 C 97.455887 246.567352 97.083237 246.469696 96.627762 246.469696 C 96.172287 246.469696 95.799637 246.710358 95.799637 247.004456 C 95.799637 247.298584 96.172287 247.39621 96.627762 247.221436 C 97.083237 247.046661 97.455887 246.806 97.455887 246.686676 Z M 137.481827 244.813446 C 137.674545 244.501648 137.222382 244.261383 136.442825 244.261383 C 135.683716 244.261383 134.909073 244.509796 134.721405 244.813446 C 134.528702 245.125275 134.980865 245.36554 135.760422 245.36554 C 136.519531 245.36554 137.294159 245.117096 137.481827 244.813446 Z M 111.257935 241.988678 C 111.257935 241.419037 110.596893 241.365601 109.370804 241.83606 C 107.985458 242.367676 108.357285 243.030914 109.877716 242.740234 C 110.636841 242.595154 111.257935 242.256927 111.257935 241.988678 Z M 423.645691 241.898804 C 425.52951 241.374054 425.788177 241.172455 424.860016 240.952484 C 423.386871 240.603333 405.821686 241.341187 396.408234 242.147675 C 393.85025 242.366821 413.605103 242.901917 417.663391 242.723419 C 419.637085 242.636627 422.329132 242.265533 423.645691 241.898804 Z M 442.783112 240.199677 C 443.390411 240.05603 442.272461 239.95871 440.298767 239.983459 C 435.587921 240.042542 433.723175 240.549683 436.710205 240.959503 C 437.924805 241.126129 439.539642 241.082123 440.298767 240.861694 C 441.057861 240.641266 442.175842 240.343384 442.783112 240.199707 Z M 90.46199 240.361877 C 91.598755 240.328674 91.591354 240.299896 90.31485 239.789886 C 88.809631 239.188507 87.518417 239.488068 87.518417 240.438629 C 87.518417 240.784912 87.910538 240.916626 88.391693 240.731995 C 88.871979 240.547699 89.803619 240.381134 90.46199 240.361877 Z M 451.076752 239.740417 C 451.224396 239.592743 450.241699 239.430206 448.892975 239.379181 C 447.54425 239.328186 446.269073 239.564178 446.059265 239.903656 C 445.791138 240.337494 446.440033 240.444824 448.243011 240.264893 C 449.6539 240.124084 450.929077 239.888092 451.076752 239.740417 Z M 882.792419 233.219818 C 883.003662 232.87796 882.122742 232.692627 880.478638 232.733063 C 878.121643 232.791077 878.009521 232.845673 879.479919 233.219818 C 881.895691 233.834534 882.412537 233.834534 882.792419 233.219818 Z M 31.861656 225.113556 C 31.463112 224.954071 30.986954 224.973694 30.803505 225.157135 C 30.620049 225.340607 30.946114 225.4711 31.528107 225.447113 C 32.171257 225.420624 32.302063 225.289795 31.861656 225.113586 Z M 38.383118 224.386505 C 39.492668 224.031189 39.546799 223.941315 38.659164 223.928284 C 38.051865 223.919281 37.058128 224.125549 36.450836 224.386505 C 35.044006 224.991058 36.495438 224.991058 38.383118 224.386505 Z M 45.791077 224.603485 C 46.271385 224.419189 46.664352 223.821716 46.664352 223.275818 C 46.664352 222.430145 46.317108 222.32666 44.318008 222.576508 C 41.781158 222.893585 40.125725 223.834442 42.104698 223.834442 C 42.754791 223.834442 43.440231 224.082855 43.627907 224.386505 C 44.020638 225.021973 44.559616 225.07605 45.791077 224.603485 Z M 942.693298 215.001129 C 942.693298 214.697479 942.258484 214.45285 941.727173 214.457489 C 940.90155 214.464508 940.881409 214.543701 941.589111 215.001129 C 942.631042 215.674438 942.693298 215.674438 942.693298 215.001129 Z M 59.465736 192.54071 C 59.067207 192.381226 58.591026 192.400848 58.407593 192.58432 C 58.224136 192.767761 58.550209 192.898224 59.132202 192.874268 C 59.775337 192.847687 59.906158 192.716949 59.465736 192.540741 Z M 54.94558 190.929962 C 54.94558 190.030151 53.41011 189.928955 51.39299 190.695862 C 49.197044 191.530762 49.718193 192.118256 52.461212 191.900085 C 54.127892 191.767548 54.94558 191.448242 54.94558 190.929962 Z M 65.200272 191.328247 C 64.649002 190.436249 62.674728 190.208771 62.674728 191.037262 C 62.674728 191.502167 63.241547 191.81369 64.087509 191.81369 C 64.86454 191.81369 65.365288 191.595215 65.200272 191.328247 Z M 61.018478 190.709534 C 61.63446 190.311462 61.316261 190.17218 59.776291 190.165894 C 58.637627 190.160889 57.705994 190.405884 57.705994 190.709534 C 57.705994 191.41272 59.930382 191.41272 61.018478 190.709534 Z M 981.338989 126.115936 C 981.338989 125.812286 981.090576 125.563873 980.786865 125.563873 C 980.483276 125.563873 980.234863 125.812286 980.234863 126.115936 C 980.234863 126.419586 980.483276 126.66803 980.786865 126.66803 C 981.090576 126.66803 981.338989 126.419586 981.338989 126.115936 Z M 985.341553 115.812836 C 984.962158 115.659668 984.340942 115.659668 983.961548 115.812836 C 983.581909 115.966003 983.892456 116.091309 984.651489 116.091309 C 985.410645 116.091309 985.721191 115.966003 985.341553 115.812836 Z M 977.060425 109.163849 C 976.377197 109.032257 975.259277 109.032257 974.57605 109.163849 C 973.892883 109.295441 974.451782 109.403107 975.818237 109.403107 C 977.18457 109.403107 977.743652 109.295441 977.060425 109.163849 Z M 951.526611 104.707062 C 951.526611 104.470703 949.47699 103.982697 946.971924 103.622589 C 944.466858 103.262512 941.819397 102.795654 941.088745 102.585175 C 940.263733 102.347534 939.888123 102.409515 940.097839 102.748718 C 940.283508 103.049133 942.620361 103.611023 945.290894 103.997314 C 947.961426 104.383606 950.394775 104.778412 950.698486 104.874664 C 951.002075 104.970947 951.312683 105.069275 951.388611 105.093231 C 951.4646 105.117126 951.526611 104.943451 951.526611 104.707062 Z M 146.31514 99.615997 C 147.301056 99.192352 147.260208 99.13736 145.933655 99.102753 C 145.116547 99.081329 144.294464 99.312347 144.106812 99.615997 C 143.699463 100.275116 144.781326 100.275116 146.31514 99.615997 Z M 947.662048 96.38147 C 947.662048 96.120697 945.168762 95.62381 942.12146 95.277313 C 935.257568 94.496796 934.025024 94.481049 934.726746 95.1828 C 935.021301 95.477325 937.990112 95.939484 941.324158 96.209808 C 944.658142 96.480133 947.44812 96.736023 947.524048 96.778473 C 947.599915 96.820953 947.662048 96.642273 947.662048 96.3815 Z M 115.341675 89.770538 C 115.498077 89.517517 115.264374 89.310486 114.822174 89.310486 C 114.380066 89.310486 114.018341 89.517517 114.018341 89.770538 C 114.018341 90.02359 114.252121 90.230621 114.537842 90.230621 C 114.823563 90.230621 115.185287 90.02359 115.341675 89.770538 Z M 189.205002 88.749329 C 188.806458 88.589844 188.330292 88.609436 188.146835 88.792816 C 187.963394 88.976288 188.289459 89.106781 188.871445 89.082794 C 189.514603 89.056183 189.645416 88.925476 189.205002 88.749237 Z M 103.528793 88.022278 C 103.528793 87.718628 103.094025 87.473999 102.562653 87.478638 C 101.736969 87.485657 101.716904 87.56485 102.424622 88.022278 C 103.466507 88.695618 103.528793 88.695618 103.528793 88.022278 Z M 105.737106 87.161591 C 105.737106 87.027679 105.488678 86.918121 105.185028 86.918121 C 104.881393 86.918121 104.63295 87.181213 104.63295 87.502777 C 104.63295 87.824371 104.881393 87.933899 105.185028 87.746246 C 105.488678 87.558594 105.737106 87.295471 105.737106 87.161591 Z M 137.20578 83.317627 C 137.96489 83.105408 140.325043 82.724457 142.450577 82.471039 C 144.576065 82.217621 147.184677 81.74765 148.247421 81.426697 C 149.310165 81.105774 150.179703 80.863922 150.179703 80.889313 C 150.179703 81.100922 153.961304 79.919586 155.838547 79.121521 C 158.686707 77.910675 158.866592 76.980682 156.252609 76.980682 C 154.903076 76.980682 154.320313 76.730896 154.320313 76.152527 C 154.320313 75.303528 156.791229 74.967865 160.892761 75.259766 C 162.679596 75.386932 167.777725 74.435394 168.944931 73.756927 C 169.816757 73.250214 167.030655 72.678802 163.396347 72.619049 C 161.031982 72.579926 159.01738 72.968842 156.528656 73.944183 C 154.591629 74.703308 152.494919 75.328217 151.869293 75.332855 C 150.963272 75.339874 150.894943 75.444519 151.533554 75.84848 C 151.974518 76.127502 152.533493 76.233185 152.775726 76.083496 C 153.017975 75.933777 153.216156 76.046387 153.216156 76.333313 C 153.216156 76.827637 152.007706 77.176666 147.790955 77.90033 C 146.780792 78.073669 145.820145 78.565094 145.656174 78.992371 C 145.412415 79.627594 145.199982 79.640808 144.491043 79.065094 C 143.764908 78.475281 143.676865 78.502228 143.949173 79.230743 C 144.187042 79.867188 143.955185 80.075928 143.086395 80.008484 C 142.433044 79.957794 141.074127 80.141693 140.066544 80.417114 C 138.796173 80.764435 137.992325 80.716827 137.444168 80.261902 C 136.999603 79.892944 136.653702 79.844238 136.653702 80.150574 C 136.653702 80.759613 132.447205 82.501495 130.97641 82.501495 C 130.45517 82.501495 130.028717 82.841156 130.028717 83.256287 C 130.028717 83.818237 130.769043 83.971771 132.927155 83.857269 C 134.521286 83.772675 136.446671 83.529907 137.20578 83.317657 Z M 159.916626 63.295746 C 159.518326 63.162994 158.929962 63.316742 158.609146 63.637695 C 158.199463 64.047363 158.415009 64.119202 159.333313 63.879059 C 160.079834 63.683838 160.330093 63.433594 159.916626 63.295746 Z M 826.755005 61.108307 C 826.755005 60.880554 826.000183 60.641449 825.078918 60.576904 C 824.120239 60.509705 823.544373 60.686768 823.732361 60.990967 C 824.11731 61.613708 826.756592 61.716217 826.755005 61.108307 Z M 161.497391 57.63031 L 162.877594 57.58783 L 161.589813 57.071655 C 160.135025 56.488495 157.632813 56.937744 157.632813 57.782013 C 157.632813 58.089844 158.188065 58.189819 158.875 58.005737 C 159.558197 57.822632 160.738266 57.653748 161.497391 57.63031 Z M 822.339417 57.749817 C 822.339417 57.496765 821.966736 57.289734 821.511353 57.289734 C 821.055847 57.289734 820.683228 57.496765 820.683228 57.749817 C 820.683228 58.002838 821.055847 58.209869 821.511353 58.209869 C 821.966736 58.209869 822.339417 58.002838 822.339417 57.749817 Z M 824.651306 57.832703 C 824.252747 57.673218 823.77655 57.692871 823.59314 57.876221 C 823.409607 58.059723 823.735779 58.190186 824.317749 58.166199 C 824.960876 58.139801 825.091675 58.008881 824.651306 57.832672 Z M 170.986298 56.728546 C 170.587753 56.569031 170.111588 56.588715 169.928131 56.772064 C 169.74469 56.955505 170.070755 57.086029 170.65274 57.062012 C 171.295883 57.035614 171.426712 56.904724 170.986298 56.728516 Z M 109.049606 56.001495 C 109.049606 55.697876 108.801163 55.449463 108.497513 55.449463 C 108.193878 55.449463 107.945435 55.697876 107.945435 56.001495 C 107.945435 56.305176 108.193878 56.553589 108.497513 56.553589 C 108.801163 56.553589 109.049606 56.305176 109.049606 56.001495 Z M 123.403748 54.553741 C 123.403748 53.935211 122.366913 54.477539 122.069962 55.251495 C 121.779205 56.009155 121.859985 56.043335 122.562973 55.4599 C 123.025391 55.076172 123.403748 54.668335 123.403748 54.553741 Z M 128.924545 54.621338 C 128.924545 54.165894 128.826843 53.793213 128.707581 53.793213 C 128.588242 53.793213 128.34761 54.165894 128.172821 54.621338 C 127.998047 55.076813 128.095627 55.449463 128.389786 55.449463 C 128.683914 55.449463 128.924545 55.076813 128.924545 54.621338 Z M 851.703308 35.749481 C 851.304749 35.589935 850.828552 35.609619 850.645142 35.792969 C 850.46167 35.97641 850.787781 36.106934 851.369751 36.082916 C 852.012878 36.056519 852.143738 35.925629 851.703308 35.74942 Z M 343.384796 24.570923 C 343.559509 24.288239 343.476013 23.917053 343.199188 23.746002 C 342.922424 23.574921 342.553497 23.806213 342.379395 24.259918 C 342.036163 25.154358 342.865662 25.41095 343.384796 24.570923 Z M 81.335907 261.513916 C 81.018173 261.134369 80.974976 260.816284 81.239914 260.807037 C 81.504822 260.798035 81.257004 260.520355 80.689194 260.19046 C 79.232605 259.344208 80.523026 258.618774 83.377808 258.678986 C 84.868805 258.710388 85.227478 258.842194 84.481979 259.084595 C 83.430054 259.426636 82.64592 260.832153 83.515823 260.816284 C 85.136856 260.786713 86.307526 260.065186 86.054947 259.251221 C 85.80835 258.456482 85.874207 258.46347 86.568085 259.305603 C 87.511017 260.450043 91.712189 260.660614 92.075333 259.581665 C 92.259796 259.0336 92.484253 259.037323 93.165848 259.599854 C 94.240555 260.486664 94.874756 262.641479 93.961945 262.304688 C 93.606293 262.173492 93.395782 261.731506 93.494156 261.32251 C 93.619247 260.80249 93.365845 260.856903 92.651321 261.50354 C 91.835403 262.241913 90.651184 262.405579 86.771622 262.316162 C 83.686554 262.245056 81.702774 261.952301 81.335938 261.514069 Z M 73.757294 260.297058 C 73.021858 259.842529 73.375526 258.615509 74.241959 258.615509 C 74.871727 258.615509 75.424622 260.174438 74.908081 260.493683 C 74.6791 260.635193 74.161247 260.546692 73.757294 260.297058 Z M 85.438202 255.855103 C 84.827576 254.877319 84.891357 254.741302 85.995514 254.66684 C 86.681274 254.620636 87.615021 254.542175 88.070496 254.492584 C 89.543198 254.332184 89.820297 254.836639 88.849014 255.909912 C 87.621994 257.265717 86.305954 257.244598 85.438202 255.855103 Z M 419.871735 251.74707 C 419.871735 251.613159 420.120148 251.350067 420.423798 251.162384 C 420.727448 250.974731 420.975891 251.08429 420.975891 251.405853 C 420.975891 251.727417 420.727448 251.99054 420.423798 251.99054 C 420.120148 251.99054 419.871735 251.880981 419.871735 251.74707 Z M 426.349487 251.369934 C 426.723969 250.992645 427.169464 250.822998 427.339447 250.992981 C 427.50943 251.162964 427.203003 251.47168 426.658539 251.678986 C 425.871735 251.978577 425.808289 251.915192 426.349487 251.369934 Z M 130.028717 249.849792 C 130.028717 249.583344 130.411896 249.047302 130.880234 248.6586 C 131.542236 248.109192 131.87912 248.099274 132.393845 248.614014 C 132.908585 249.128754 132.872665 249.391968 132.232437 249.796753 C 131.191345 250.454926 130.028717 250.482941 130.028717 249.849762 Z M 753.329224 244.813446 C 753.329224 244.509796 753.687195 244.261383 754.124756 244.261383 C 754.562256 244.261383 755.073853 244.509796 755.261475 244.813446 C 755.449158 245.117096 755.091187 245.36554 754.465942 245.36554 C 753.840759 245.36554 753.329224 245.117096 753.329224 244.813446 Z M 743.943787 244.227081 C 743.943787 243.598602 745.426941 243.534607 745.805298 244.146759 C 745.954041 244.38739 745.595947 244.620392 745.009705 244.664551 C 744.423462 244.70874 743.943787 244.511841 743.943787 244.227081 Z M 196.440979 243.336243 C 195.944153 242.041534 196.701172 241.851593 198.60936 242.792114 C 199.604767 243.282745 200.170731 243.721527 199.867081 243.767181 C 197.540375 244.117096 196.700058 244.011414 196.440979 243.336243 Z M 673.829407 242.05304 C 673.829407 241.74939 673.938904 241.500977 674.072876 241.500977 C 674.206726 241.500977 674.46991 241.74939 674.657532 242.05304 C 674.845154 242.356689 674.735657 242.605133 674.414063 242.605133 C 674.092529 242.605133 673.829407 242.356689 673.829407 242.05304 Z M 665.869995 241.575073 C 665.632202 241.190247 665.586731 240.726318 665.768982 240.544098 C 666.263 240.050018 666.801697 240.776703 666.534912 241.577301 C 666.3479 242.138306 666.217834 242.137878 665.869995 241.57428 Z M 667.894531 241.687408 C 666.764343 241.231354 667.112305 240.476105 668.308594 240.78894 C 668.915894 240.947723 669.412781 241.297119 669.412781 241.565369 C 669.412781 242.091705 668.982239 242.126312 667.894531 241.687408 Z M 932.571777 238.924591 C 931.936523 238.289337 932.169739 237.636414 933.03186 237.636414 C 933.487305 237.636414 933.859985 238.009064 933.859985 238.464508 C 933.859985 239.32663 933.207031 239.559814 932.571777 238.924591 Z M 247.416962 235.542694 C 247.26825 235.302063 247.631622 235.068634 248.224426 235.023987 C 248.817261 234.979401 249.15802 235.176208 248.98172 235.461487 C 248.590546 236.094421 247.783844 236.136292 247.416962 235.542694 Z M 252.393402 234.59436 C 252.566986 234.141968 253.117218 233.752686 253.616119 233.729309 C 254.115021 233.705902 255.641174 233.57489 257.007568 233.43811 C 258.799255 233.258759 259.261047 233.345215 258.663818 233.748199 C 257.980591 234.209229 257.972534 234.308472 258.617798 234.31546 C 259.047974 234.320435 259.245087 234.478729 259.055878 234.667938 C 258.866638 234.857178 257.219147 235.103088 255.394775 235.214447 C 252.631409 235.383118 252.130463 235.279572 252.393402 234.59436 Z M 27.089027 233.257904 C 26.680725 232.59726 27.719292 231.942688 28.454659 232.397186 C 29.072075 232.778778 28.666748 233.77182 27.893562 233.77182 C 27.625763 233.77182 27.263718 233.540558 27.089027 233.257904 Z M 32.310219 218.898193 C 32.310219 218.612457 32.555817 218.226898 32.855988 218.041412 C 33.168945 217.847992 33.261482 218.069611 33.072952 218.560913 C 32.705948 219.517334 32.310219 219.692322 32.310219 218.898193 Z M 36.358826 218.613861 C 36.358826 218.171753 36.569908 217.940491 36.827896 218.099915 C 37.085884 218.259369 37.154037 218.621094 36.979347 218.903748 C 36.532913 219.626099 36.358826 219.544769 36.358826 218.613861 Z M 998.453613 146.542877 C 997.998047 146.248535 997.873901 146.00769 998.177612 146.00769 C 998.481201 146.00769 999.102295 146.248535 999.557739 146.542877 C 1000.013184 146.837219 1000.137451 147.078064 999.83374 147.078064 C 999.530151 147.078064 998.909058 146.837219 998.453613 146.542877 Z M 91.38298 105.57135 C 91.38298 105.332306 91.879852 105.136749 92.487152 105.136749 C 93.094437 105.136749 93.591309 105.369751 93.591309 105.65451 C 93.591309 105.93927 93.094437 106.134857 92.487152 106.089111 C 91.879852 106.043304 91.38298 105.810364 91.38298 105.57135 Z M 114.502335 97.46347 L 113.207733 96.415192 L 116.511475 95.976593 C 118.328522 95.735382 121.119202 95.523926 122.712967 95.506683 C 124.306747 95.48938 125.611023 95.306305 125.611404 95.099792 C 125.611923 94.669952 128.900345 95.526001 129.413589 96.089661 C 129.600098 96.294464 128.986282 96.316528 128.049576 96.138763 C 127.001114 95.939728 125.727814 96.142761 124.737076 96.666107 C 123.851913 97.133972 121.823395 97.540833 120.229263 97.57019 C 118.635132 97.599609 117.330826 97.823486 117.330826 98.067719 C 117.330826 98.859131 115.829895 98.538513 114.502335 97.463501 Z M 107.542877 97.626129 C 107.726334 97.442657 108.202499 97.423065 108.601028 97.582611 C 109.041443 97.75885 108.910629 97.889679 108.267487 97.916168 C 107.685516 97.940063 107.359436 97.809662 107.542877 97.62619 Z M 97.499466 90.000488 C 97.475571 89.418518 97.605988 89.092438 97.789429 89.275879 C 97.972885 89.459351 97.992493 89.935516 97.833023 90.334045 C 97.656784 90.774445 97.52597 90.643616 97.499481 90.000488 Z M 112.577271 85.36026 C 112.731461 85.110779 112.349213 84.471344 111.727829 83.939331 C 110.61615 82.987457 110.652786 82.946045 114.014008 81.356445 C 118.062286 79.441956 118.434998 79.398834 118.434998 80.845123 C 118.434998 81.525452 118.064133 81.952545 117.468857 81.957733 C 116.685806 81.964722 116.650726 82.059906 117.283783 82.460602 C 117.713364 82.732544 118.520782 82.867188 119.078049 82.759918 C 119.6353 82.652588 120.091248 82.817932 120.091248 83.127441 C 120.091248 83.43692 119.283829 83.645905 118.296982 83.591888 C 117.310135 83.537903 116.005844 83.522705 115.398544 83.558197 C 114.478668 83.611786 114.432602 83.711914 115.122513 84.157745 C 115.830215 84.615143 115.810165 84.694153 114.984482 84.701355 C 114.453094 84.70636 114.018341 84.958313 114.018341 85.261932 C 114.018341 85.565582 113.631027 85.813995 113.157639 85.813995 C 112.68425 85.813995 112.423096 85.609894 112.577271 85.360413 Z M 119.636475 80.905273 C 119.081451 80.562256 119.103073 80.332001 119.739914 79.803436 C 120.633255 79.062012 121.345154 79.709625 120.730347 80.704315 C 120.511154 81.05899 120.028625 81.147614 119.636475 80.905273 Z M 100.492325 57.657684 C 100.304672 57.354004 100.523834 57.105591 100.979263 57.105591 C 101.434723 57.105591 101.960922 57.354004 102.148575 57.657684 C 102.336243 57.961334 102.117188 58.209778 101.661667 58.209778 C 101.206192 58.209778 100.679993 57.961334 100.492325 57.657684 Z M 111.799515 55.185944 C 112.594604 54.227997 112.914185 54.128265 112.914185 54.838196 C 112.914185 55.109375 112.506393 55.487701 112.007965 55.678955 C 111.250244 55.969727 111.216095 55.888977 111.799515 55.185944 Z M 892.057251 46.276581 C 892.704346 45.629395 896.239258 45.122284 896.952393 45.574219 C 897.362854 45.83429 897.450134 46.075562 897.146545 46.110321 C 894.175049 46.450989 891.80542 46.528381 892.057251 46.276581 Z M 888.705566 45.595459 C 888.246643 45.304321 888.589844 45.14386 889.671753 45.14386 C 890.594604 45.14386 891.34967 45.350891 891.34967 45.603912 C 891.34967 46.191498 889.636414 46.186035 888.705566 45.59491 Z M 874.51123 44.890625 C 872.147705 44.361572 866.410461 43.982086 855.690186 43.645874 C 852.018921 43.53067 848.484009 43.152222 847.8349 42.80484 C 847.128479 42.426758 844.655212 42.234436 841.674133 42.325745 C 838.934753 42.409729 836.693542 42.421936 836.693542 42.352631 C 836.693542 42.160553 839.905823 40.542755 840.287292 40.542755 C 840.472107 40.542755 840.469727 40.791199 840.282288 41.094818 C 840.083191 41.416931 840.644592 41.646942 841.629944 41.646942 C 842.558716 41.646942 843.318726 41.398499 843.318726 41.094818 C 843.318726 40.791199 843.581909 40.542755 843.903381 40.542755 C 844.224976 40.542755 844.301514 40.853333 844.073486 41.232849 C 843.766968 41.743134 843.866333 41.777313 844.454895 41.363861 C 844.892761 41.056335 845.747864 40.833252 846.355164 40.868134 C 846.962463 40.902832 848.77832 40.96817 850.390381 41.013153 C 852.002441 41.058044 853.206055 41.281158 853.065002 41.508881 C 852.924011 41.736633 854.33783 41.886566 856.206909 41.842133 C 858.075928 41.797241 860.039917 41.992828 860.571289 42.275635 C 861.216125 42.618958 861.537415 42.58905 861.537415 42.185944 C 861.537415 41.853668 861.837769 41.767426 862.204773 41.994293 C 862.571899 42.221161 864.994141 42.474518 867.587585 42.557373 C 870.181091 42.640167 872.30304 42.737396 872.30304 42.773376 C 872.30304 42.809479 873.545227 42.919281 875.063477 43.017731 C 876.581665 43.116119 877.885986 43.251648 877.961853 43.318939 C 878.09137 43.433746 878.660217 43.600983 879.618103 43.805908 C 880.057434 43.899902 877.465942 45.503326 876.995728 45.428528 C 876.843872 45.404114 875.725952 45.16217 874.511353 44.890289 Z M 852.151855 42.130371 C 852.151855 41.864716 851.669678 41.647308 851.080261 41.647308 C 850.490906 41.647308 849.87439 41.864716 849.710144 42.130371 C 849.545898 42.396088 850.028198 42.613434 850.781677 42.613434 C 851.535339 42.613434 852.151855 42.396088 852.151855 42.130371 Z M 881.682678 40.534149 C 881.491943 40.225555 881.104675 40.115967 880.82196 40.29068 C 880.539307 40.465393 880.308044 40.359894 880.308044 40.056244 C 880.308044 38.987366 881.198792 38.970428 881.858459 40.026947 C 882.225464 40.614624 882.414063 41.095367 882.277588 41.095367 C 882.141113 41.095367 881.873413 40.842865 881.682678 40.534332 Z M 869.864441 38.380859 C 869.282532 37.798828 868.691101 37.437897 868.550293 37.578674 C 868.409546 37.719543 867.084534 37.917969 865.605896 38.019775 C 863.044617 38.196136 859.868835 37.058746 860.674133 36.25354 C 861.318665 35.608948 865.131287 35.759827 865.964111 36.462799 C 866.816833 37.182587 868.370483 37.206451 869.066345 36.510193 C 869.652283 35.924347 872.468445 36.052826 872.857971 36.683197 C 873.388306 37.54126 872.600281 39.43866 871.713562 39.43866 C 871.278564 39.43866 870.446472 38.962494 869.864441 38.380524 Z M 875.562622 38.801605 C 875.327515 38.421143 875.410339 38.313477 875.767944 38.534515 C 876.097534 38.738281 876.523254 38.652405 876.713928 38.343811 C 877.228394 37.511444 877.91571 37.664215 877.91571 38.61084 C 877.91571 39.583374 876.134949 39.727692 875.562622 38.801605 Z M 230.105072 34.688843 C 230.288513 34.505341 230.764679 34.485687 231.163239 34.645325 C 231.603638 34.821564 231.472839 34.952362 230.829681 34.978882 C 230.247681 35.002777 229.921631 34.872375 230.105072 34.688904 Z M 341.476105 19.011932 C 341.476105 18.708313 341.585663 18.459869 341.719543 18.459869 C 341.853455 18.459869 342.116547 18.708313 342.30423 19.011932 C 342.491882 19.315582 342.382324 19.564026 342.06076 19.564026 C 341.739197 19.564026 341.476105 19.315582 341.476105 19.011932 Z M 354.349609 19.06781 C 353.458435 18.413025 353.671539 17.472107 354.652924 17.728699 C 355.278717 17.892426 355.680237 17.667206 355.73822 17.120056 C 355.788818 16.642365 355.871643 15.878906 355.922241 15.423431 C 355.972839 14.967957 356.469727 14.564301 357.026398 14.526306 C 357.583099 14.48822 358.224884 14.406006 358.452606 14.343323 C 358.680359 14.280518 359.612 14.028961 360.522919 13.784088 C 362.548615 13.239655 363.648865 12.426361 363.244659 11.772369 C 363.078278 11.503143 363.432953 11.282867 364.032867 11.282867 C 364.632782 11.282867 365.249603 11.593353 365.403625 11.972961 C 365.598175 12.452454 365.822845 12.482239 366.13974 12.07074 C 366.950256 11.018066 368.640594 10.689514 369.532196 11.411438 C 370.247925 11.990875 370.315155 11.97641 369.923706 11.327026 C 369.564728 10.731567 369.682831 10.632019 370.414978 10.912964 C 370.945099 11.116425 371.714417 11.282837 372.124603 11.282837 C 372.53476 11.282837 373.019958 11.754181 373.20282 12.330322 C 373.416534 13.003632 373.889893 13.285004 374.528198 13.118103 C 375.937378 12.749603 375.791595 11.384552 374.370972 11.645966 C 373.248444 11.852509 373.247345 11.84494 374.324982 11.332947 C 374.932281 11.044434 376.27002 10.790894 377.297791 10.769562 C 378.325531 10.748047 380.685669 10.487091 382.542542 10.18924 C 387.355316 9.417419 399.45343 8.064819 404.965515 7.682404 C 407.546509 7.503387 410.776184 7.258423 412.142578 7.138031 C 415.021332 6.884399 420.704437 6.480713 428.152985 6.000732 C 431.037598 5.814819 435.012604 5.52594 436.986267 5.358704 C 441.729828 4.956848 449.197083 4.92688 450.236237 5.305725 C 450.691711 5.471741 452.120209 5.798279 453.410706 6.031494 C 454.701202 6.264648 455.75708 6.638245 455.75708 6.861664 C 455.75708 7.085052 455.142883 7.88208 454.392212 8.632721 C 453.281067 9.743896 452.510956 9.987488 450.249298 9.943268 C 448.597351 9.910553 447.546722 10.11557 447.657471 10.447998 C 447.759888 10.755432 449.756439 11.027435 452.094238 11.052399 C 455.765686 11.091492 458.210999 11.805817 457.376495 12.595032 C 457.003204 12.948151 449.684021 13.297058 449.685425 12.961731 C 449.685913 12.797516 448.009125 12.740906 445.958862 12.835876 C 443.908569 12.930878 440.805817 12.78299 439.063873 12.506592 C 437.32193 12.230469 435.778839 12.122406 435.634796 12.26651 C 435.490753 12.410492 434.307404 12.58075 433.005096 12.644836 C 431.70285 12.708923 429.950928 12.953278 429.111938 13.187927 C 428.204773 13.441711 427.302368 13.378815 426.885376 13.032715 C 426.499695 12.712708 423.782135 12.393402 420.846252 12.323212 C 417.211945 12.236389 415.621765 12.005951 415.863708 11.601257 C 416.059204 11.274475 415.797424 11.349091 415.282013 11.767181 C 414.63736 12.2901 413.644043 12.415283 412.098969 12.168213 C 410.624023 11.932373 409.9729 12.003082 410.20224 12.374176 C 410.59317 13.006683 410.520447 13.018799 405.517609 13.153229 C 403.543915 13.206238 401.370087 13.444977 400.68689 13.683746 C 400.003693 13.922516 399.444702 13.914795 399.444702 13.666626 C 399.444702 13.418457 398.823608 13.215363 398.064514 13.215363 C 397.305389 13.215363 396.684296 13.401703 396.684296 13.629425 C 396.684296 13.857178 396.296967 14.043488 395.823578 14.043488 C 395.350189 14.043488 395.09259 13.833679 395.251129 13.577087 C 395.634308 12.957123 389.96286 13.867615 389.551178 14.492188 C 388.797546 15.635529 378.465576 16.794189 378.465576 15.735352 C 378.465576 15.412201 378.202484 15.147644 377.88092 15.147644 C 377.559326 15.147644 377.439178 15.378937 377.613861 15.661621 C 378.113281 16.469666 376.843079 16.967194 376.021515 16.285309 C 375.470337 15.827881 375.211334 15.855835 375.004425 16.39502 C 374.825775 16.860535 373.917267 17.073181 372.455566 16.991455 C 371.20639 16.921661 370.184357 17.096527 370.184357 17.380127 C 370.184357 18.293121 367.347992 17.693542 366.797058 16.664154 C 366.504089 16.11673 366.024353 15.817169 365.730988 15.998474 C 365.437622 16.179779 365.324432 16.533386 365.479462 16.78421 C 365.634521 17.035034 365.398071 17.37973 364.954071 17.550079 C 364.510071 17.72049 363.997528 17.618378 363.815094 17.323151 C 363.612854 16.99588 362.905609 17.108337 362.003143 17.611176 C 360.304932 18.557465 355.02301 19.562866 354.349579 19.068054 Z M 346.444855 16.560211 C 346.444855 15.590485 346.776123 15.447723 347.24939 16.21344 C 347.424072 16.496094 347.314484 16.883453 347.00592 17.074127 C 346.697327 17.264862 346.444855 17.034119 346.444855 16.560211 Z M 348.52533 15.606537 C 348.84613 15.285706 349.434509 15.131836 349.832794 15.264587 C 350.246277 15.402435 349.996033 15.652679 349.249512 15.8479 C 348.331177 16.088043 348.115662 16.016144 348.52533 15.606537 Z M 538.707336 14.205719 C 538.02417 14.074127 537.465149 13.776794 537.465149 13.545074 C 537.465149 12.869446 539.864685 13.236725 540.102051 13.948669 C 540.220581 14.304352 540.234802 14.561493 540.133423 14.520111 C 540.032227 14.478607 539.390442 14.337311 538.707214 14.205719 Z M 527.251648 12.939056 C 528.769409 12.286926 529.641052 12.286926 528.631836 12.939056 C 528.176392 13.233459 527.431091 13.460663 526.975647 13.443909 C 526.429565 13.423889 526.523621 13.251953 527.251648 12.939056 Z M 530.595947 12.990448 C 530.425781 12.715118 530.783813 12.619904 531.391479 12.778839 C 532.680603 13.115936 532.843567 13.491089 531.700867 13.491089 C 531.263367 13.491089 530.766174 13.265808 530.595947 12.990448 Z M 459.523163 11.741089 C 458.654175 10.867645 459.048615 10.807068 465.872131 10.765961 C 469.873657 10.741547 473.701416 10.615082 474.378235 10.484253 C 475.055054 10.353455 475.73761 10.454956 475.895081 10.709686 C 476.052551 10.964478 476.94165 11.1203 477.870789 11.055939 C 480.382874 10.88205 480.394836 11.685822 477.883667 11.925323 C 476.69635 12.038574 475.842834 11.940033 475.987061 11.70697 C 476.440247 10.973663 475.590149 11.245728 474.724976 12.11087 C 473.785767 13.050079 471.453674 13.219177 470.938354 12.385437 C 470.711182 12.017853 470.232605 12.026398 469.51416 12.410828 C 468.29187 13.064972 467.141174 12.620453 467.703064 11.711212 C 467.948853 11.313629 467.8125 11.275818 467.298035 11.598755 C 466.871582 11.866486 465.15625 12.21756 463.486206 12.378937 C 461.096375 12.609802 460.252411 12.47406 459.523163 11.740997 Z M 503.788208 12.386841 C 503.788208 12.083221 503.897705 11.834808 504.031616 11.834808 C 504.165527 11.834808 504.42865 12.083221 504.616272 12.386841 C 504.803955 12.690521 504.694397 12.938934 504.372864 12.938934 C 504.05127 12.938934 503.788208 12.690521 503.788208 12.386841 Z M 481.704895 11.282684 C 481.207336 10.961151 481.139221 10.74411 481.534302 10.739044 C 481.895935 10.734039 482.345337 10.979034 482.53302 11.282684 C 482.956665 11.96814 482.765503 11.96814 481.704895 11.282684 Z M 697.339355 11.207397 C 697.625061 10.745209 695.521667 10.201508 695.095642 10.627533 C 694.502075 11.221069 692.048096 11.333221 692.048096 10.766724 C 692.048096 10.416351 690.477295 10.331909 687.76947 10.536835 C 684.44989 10.788116 683.057739 10.65863 681.558533 9.959351 C 680.49585 9.463684 680.044983 9.172058 680.556763 9.311249 C 681.068542 9.45047 681.56543 9.348358 681.660889 9.084686 C 681.756409 8.820923 682.207214 8.524353 682.66272 8.425629 C 683.118164 8.327026 683.67334 7.997803 683.896423 7.694122 C 684.119568 7.390472 684.305847 7.686127 684.310486 8.351501 C 684.318481 9.494812 684.402039 9.517548 685.837158 8.767822 C 687.199158 8.056335 687.434082 8.073914 688.119812 8.938568 C 688.846741 9.855316 688.86792 9.855194 688.551208 8.938568 C 688.294189 8.192963 688.522888 7.972443 689.55365 7.972443 C 690.288147 7.972443 691.142273 8.407196 691.451843 8.938568 C 691.76416 9.474731 692.021973 9.597595 692.031311 9.21463 C 692.048889 8.491669 693.704346 8.218475 693.704346 8.938568 C 693.704346 9.16629 695.58252 9.338257 697.877991 9.32074 C 700.173523 9.303131 702.175598 9.489471 702.327209 9.734802 C 702.478821 9.980072 703.134705 10.180725 703.784851 10.180725 C 704.730408 10.180725 704.828796 10.318787 704.276733 10.870819 C 703.585754 11.561798 696.920593 11.887329 697.339355 11.209656 Z M 706.402283 11.190796 C 706.402283 10.937744 706.588562 10.713959 706.816345 10.693451 C 707.044067 10.672943 708.025269 10.552185 708.996765 10.42514 C 711.181091 10.139343 711.95874 11.086456 709.857544 11.473419 C 707.780151 11.855988 706.402283 11.743347 706.402283 11.190796 Z M 666.652832 9.350464 C 666.652954 9.046844 665.721252 8.798431 664.582458 8.798431 C 663.443542 8.798431 662.329224 9.046844 662.10614 9.350464 C 661.835693 9.718536 661.697266 9.718536 661.690796 9.350464 C 661.678589 8.658813 658.371094 8.495209 658.371094 9.18631 C 658.371094 9.464294 658.145325 9.552185 657.869385 9.381622 C 657.343567 9.056671 652.487305 8.534943 647.329468 8.249237 C 645.659424 8.156738 644.29303 8.025269 644.29303 7.957062 C 644.29303 7.587036 637.028992 7.581329 636.564209 7.95105 C 635.734619 8.610992 630.214966 9.071381 630.214966 8.480591 C 630.214966 8.199951 629.842285 7.970337 629.38678 7.970337 C 628.931335 7.970337 628.558716 8.210052 628.558716 8.503113 C 628.558716 8.835724 624.670105 8.937683 618.207153 8.774597 C 612.513794 8.630951 607.256348 8.515991 606.523865 8.519165 C 605.791443 8.52417 604.362915 8.295898 603.349426 8.016052 C 602.241211 7.710114 601.506653 7.708191 601.506653 8.011047 C 601.506653 8.512756 599.575745 8.431519 599.052063 7.907715 C 598.90094 7.756653 596.388611 7.721344 593.469055 7.829315 C 589.950256 7.959473 587.897766 7.807343 587.380615 7.378174 C 586.77301 6.873871 586.598572 6.898285 586.592041 7.488403 C 586.585999 7.967133 586.434204 8.033783 586.177979 7.669373 C 585.934448 7.323242 582.79364 7.065216 578.319214 7.023956 C 574.220032 6.986359 561.798157 6.813019 550.715149 6.639374 C 539.63208 6.46582 525.409119 6.290619 519.108459 6.250183 C 512.8078 6.210175 507.652161 6.02124 507.651489 5.831238 C 507.651001 5.641174 506.284363 5.485657 504.614929 5.485657 C 502.945496 5.485657 501.579651 5.671997 501.579712 5.899719 C 501.579773 6.127472 501.316711 6.313812 500.995178 6.313812 C 500.673645 6.313812 500.564087 6.065369 500.751709 5.761719 C 500.939392 5.458069 500.705627 5.209656 500.232239 5.209656 C 499.75885 5.2099 499.371521 4.961487 499.371521 4.657837 C 499.371521 4.354187 499.108398 4.105774 498.786865 4.105774 C 498.465271 4.105774 498.355713 4.354187 498.543396 4.657837 C 498.744934 4.983948 498.136841 5.206482 497.057739 5.201477 C 495.67511 5.194458 495.432251 5.062866 496.059021 4.657837 C 496.670654 4.262573 496.696411 4.120483 496.157654 4.114197 C 495.595764 4.107178 495.618469 3.915405 496.256226 3.277649 C 496.71167 2.822144 497.598999 2.449524 498.227966 2.449524 C 498.856934 2.449524 499.371521 2.184326 499.371521 1.860168 C 499.371521 1.51062 499.848755 1.422424 500.544861 1.643372 C 501.334412 1.893921 501.594604 1.815796 501.340393 1.404541 C 501.132629 1.068298 501.109497 0.793274 501.289001 0.793274 C 501.468506 0.793274 501.804443 1.304199 502.035461 1.928711 L 502.455505 3.064209 L 503.911316 1.919006 C 504.909363 1.134033 505.487854 0.969055 505.750854 1.394592 C 506.022888 1.834717 506.269226 1.797424 506.597412 1.266296 C 506.973633 0.657593 510.761414 0.521057 526.817444 0.537842 C 537.683838 0.549561 551.046387 0.717957 556.511963 0.913086 C 561.9776 1.108154 571.045532 1.411804 576.662964 1.587891 C 596.946899 2.223511 602.172241 2.454529 602.626709 2.735474 C 603.642517 3.363098 608.091125 3.919922 608.764709 3.503601 C 609.179871 3.24707 609.663513 3.338684 609.911316 3.720825 C 610.231201 4.21405 610.477905 4.171631 610.883606 3.55365 C 611.182617 3.098206 611.431335 2.973938 611.436401 3.277649 C 611.442383 3.626038 614.856628 3.805054 620.6922 3.763 C 629.914551 3.696411 645.672668 4.587585 645.673828 5.175903 C 645.674133 5.346436 647.599548 5.458008 649.952454 5.423889 C 653.984741 5.365417 663.273254 6.120941 664.920227 6.641449 C 665.527649 6.833466 665.539185 7.039886 664.980225 7.713501 C 664.416748 8.392365 664.430908 8.502533 665.056091 8.305115 C 665.478638 8.171722 666.517639 7.910278 667.365051 7.724213 C 668.314331 7.515717 668.783325 7.127167 668.58667 6.711945 C 668.411072 6.341309 668.556885 6.426941 668.91095 6.90213 C 669.431396 7.601013 670.140747 7.686707 672.619995 7.350281 C 674.363464 7.113708 676.103027 7.157684 676.653503 7.452271 C 677.185913 7.737244 678.320923 8.00415 679.175964 8.045502 C 680.607971 8.114685 680.625549 8.140503 679.398804 8.371674 C 678.368286 8.565887 678.243469 8.734314 678.846741 9.11615 C 679.700256 9.656433 678.982849 9.724121 671.207153 9.8367 C 668.49469 9.875824 666.65271 9.679321 666.652893 9.350525 Z M 506.197388 4.384949 C 506.023254 3.931213 505.658386 3.697449 505.386597 3.865479 C 504.607056 4.347229 504.810181 5.209839 505.703125 5.209839 C 506.195618 5.209839 506.389648 4.886047 506.197388 4.384949 Z M 473.998169 6.272156 C 474.566345 5.21051 474.532593 5.089905 473.75116 5.389771 C 472.97168 5.688904 472.936523 5.567993 473.498108 4.518677 L 474.150208 3.300293 L 474.699402 4.531128 C 475.32959 5.943298 476.469666 6.148621 476.935791 4.933838 C 477.110596 4.478333 477.054321 4.105713 476.810852 4.105713 C 476.567322 4.105713 476.368103 3.730042 476.368103 3.270813 C 476.368103 2.59198 476.866943 2.502014 479.036499 2.789856 C 480.859436 3.031616 481.704895 2.94635 481.704895 2.52063 C 481.704895 2.174438 482.57843 1.8974 483.6698 1.8974 C 484.957947 1.8974 485.505371 2.106506 485.259399 2.504578 C 484.992615 2.936218 485.218994 2.932556 486.04248 2.491882 C 487.005005 1.976807 487.146301 2.01416 486.878174 2.71283 C 486.700684 3.175293 486.333679 3.553711 486.0625 3.553711 C 485.791321 3.553711 485.569458 3.802124 485.569458 4.105713 C 485.569458 5.256592 486.5672 4.591431 487.225708 3.001587 C 487.993774 1.147461 488.01355 1.137207 489.397522 1.87793 C 490.095642 2.251526 490.311401 2.834961 490.120605 3.833069 C 489.971008 4.61554 490.065918 5.18335 490.331421 5.094788 C 490.596985 5.006287 490.938477 5.176636 491.090271 5.473389 C 491.25354 5.792542 489.941345 6.051208 487.878052 6.106628 C 484.689026 6.19223 484.338013 6.086609 483.786804 4.876953 C 483.192566 3.572693 481.152832 3.000732 481.152832 4.138306 C 481.152832 4.459961 481.398438 4.571228 481.698608 4.385742 C 482.006531 4.195313 482.106934 4.406738 481.928955 4.870361 C 481.744629 5.350647 481.25061 5.55304 480.74054 5.357239 C 480.173035 5.139526 480.003723 5.242676 480.256714 5.652039 C 480.700806 6.370636 478.866028 6.901245 476.736145 6.670135 C 475.977051 6.58783 474.902405 6.741241 474.348022 7.011108 C 473.444824 7.450806 473.408508 7.374084 473.998169 6.272186 Z M 489.101135 4.197754 C 489.257507 3.944702 489.034668 3.737671 488.605896 3.737671 C 488.177185 3.737671 487.954346 3.944702 488.110718 4.197754 C 488.26709 4.450745 488.489929 4.657837 488.605896 4.657837 C 488.721924 4.657837 488.944763 4.450745 489.101135 4.197754 Z M 466.561462 6.376801 C 466.395081 6.107666 466.75415 5.758057 467.359253 5.599792 C 468.092041 5.408142 468.346802 5.018433 468.122131 4.432922 C 467.936523 3.94928 468.018311 3.55365 468.303833 3.55365 C 469.061096 3.55365 468.938721 5.357056 468.126343 6.169464 C 467.302307 6.9935 466.969788 7.037537 466.561462 6.376801 Z M 469.946838 4.841858 C 470.102173 4.436951 470.300354 4.105713 470.387207 4.105713 C 470.473999 4.105713 470.672241 4.436951 470.827576 4.841858 C 470.982971 5.246704 470.78479 5.577942 470.387207 5.577942 C 469.989685 5.577942 469.791504 5.246704 469.946838 4.841858 Z M 472.075989 3.295166 C 472.665405 2.849365 473.691956 2.476685 474.357239 2.467041 C 475.674072 2.44751 476.513123 3.285095 475.688171 3.794983 C 475.405518 3.969666 475.079041 3.827209 474.962646 3.477905 C 474.80365 3.000977 474.458008 3.000061 473.571594 3.4729 C 471.874573 4.381165 470.807251 4.253174 472.075989 3.29364 Z M 464.739868 3.220032 C 464.92334 3.036621 465.399536 3.016968 465.798035 3.176575 C 466.238464 3.352783 466.107605 3.483582 465.464478 3.510071 C 464.882507 3.533936 464.556458 3.403564 464.739868 3.220093 Z M 493.850708 3.001526 C 493.143005 2.544189 493.163025 2.465088 493.988708 2.457825 C 494.520081 2.45282 494.954895 2.697815 494.954895 3.001526 C 494.954895 3.674866 494.892578 3.674866 493.850708 3.001526 Z M 490.885742 2.160645 C 490.622498 1.474548 490.764099 1.427307 491.654785 1.903992 C 492.93457 2.588928 493.055847 3.001526 491.977478 3.001526 C 491.554504 3.001526 491.063232 2.623108 490.885742 2.160645 Z"/>
</svg>
