<svg width="144" height="24" viewBox="0 0 144 24" fill="none" xmlns="http://www.w3.org/2000/svg">
<g clip-path="url(#clip0_1764_50823)">
<path d="M91.5 0.00231934L89.3919 0.016578C88.1825 0.0209847 86.9924 0.319041 85.9243 0.884994C84.8563 1.45095 83.9425 2.26778 83.2619 3.26489V0.00232115H72V24.0023H83.2619V16.1132C83.2619 14.8213 83.7764 13.5822 84.6924 12.6687C85.6083 11.7551 86.8506 11.2419 88.1459 11.2419L91.5 11.2419V0.00231934Z" fill="#552B5E"/>
<path d="M57.75 -6.86646e-05V23.9976H69.0118V-6.86646e-05H57.75Z" fill="#552B5E"/>
<path d="M11.2954 5.90495V0H0V24H11.2954V15.9576C11.3014 18.0916 12.158 20.1362 13.6775 21.6433C15.197 23.1504 17.2554 23.997 19.4016 23.9976H29.25V12.7652H18.4959C14.6244 12.7652 11.2954 9.93505 11.2954 5.90495Z" fill="#552B5E"/>
<path d="M18.4311 0C16.9244 0 15.4794 0.592632 14.414 1.64752C13.3485 2.70242 12.75 4.13316 12.75 5.625C12.75 5.7226 12.75 5.81901 12.7572 5.91541C12.8324 7.35512 13.463 8.71129 14.5188 9.70398C15.5746 10.6967 16.9751 11.2501 18.4311 11.25H29.25V0H18.4311Z" fill="#552B5E"/>
<path d="M32.25 5.62262V0H49.1731C50.6513 -5.34054e-07 52.0692 0.592231 53.1149 1.64654C54.1606 2.70085 54.7487 4.13097 54.75 5.62262V11.25H37.8281C37.0956 11.2502 36.3703 11.1047 35.6935 10.822C35.0168 10.5393 34.4019 10.1248 33.8839 9.6022C33.3659 9.07963 32.955 8.45923 32.6746 7.7764C32.3943 7.09358 32.25 6.36172 32.25 5.62262V5.62262Z" fill="#552B5E"/>
<path d="M32.25 18.375C32.25 17.6362 32.3943 16.9047 32.6746 16.2221C32.955 15.5396 33.3659 14.9194 33.8839 14.3971C34.4019 13.8748 35.0168 13.4604 35.6935 13.1778C36.3703 12.8952 37.0956 12.7498 37.8281 12.75H54.75V24H37.8281C37.0956 24.0002 36.3703 23.8548 35.6935 23.5722C35.0168 23.2896 34.4019 22.8752 33.8839 22.3529C33.3659 21.8305 32.955 21.2104 32.6746 20.5279C32.3943 19.8453 32.25 19.1138 32.25 18.375V18.375Z" fill="#552B5E"/>
<path d="M121.5 5.625C121.5 4.13316 122.088 2.70242 123.133 1.64752C124.179 0.592632 125.598 0 127.077 0H138.424C139.157 -1.65352e-08 139.882 0.145505 140.558 0.428202C141.235 0.710899 141.85 1.12525 142.367 1.6476C142.885 2.16994 143.296 2.79005 143.576 3.47249C143.856 4.15494 144 4.88637 144 5.625V11.25H127.077C125.598 11.2497 124.18 10.657 123.134 9.60213C122.088 8.5473 121.5 7.11674 121.5 5.625Z" fill="#552B5E"/>
<path d="M121.5 18.3756V12.75H138.424C139.157 12.75 139.882 12.8955 140.558 13.1782C141.235 13.461 141.85 13.8754 142.367 14.3978C142.885 14.9202 143.296 15.5403 143.576 16.2229C143.856 16.9054 144 17.6369 144 18.3756V18.3756C144 19.8673 143.413 21.2979 142.367 22.3526C141.321 23.4074 139.903 24 138.424 24H127.077C125.598 24 124.18 23.4075 123.134 22.3527C122.088 21.298 121.5 19.8674 121.5 18.3756V18.3756Z" fill="#552B5E"/>
<path d="M110.606 9.03034e-08H102.394C101.357 -0.000155978 100.331 0.201985 99.3729 0.594872C98.4151 0.987758 97.5448 1.5637 96.8118 2.28979C96.0787 3.01588 95.4972 3.8779 95.1006 4.82662C94.7039 5.77534 94.4998 6.79216 94.5 7.81901V16.1822C94.5 17.2089 94.7042 18.2256 95.1009 19.1742C95.4976 20.1228 96.0791 20.9847 96.8122 21.7106C97.5452 22.4366 98.4155 23.0124 99.3732 23.4052C100.331 23.7981 101.357 24.0002 102.394 24H110.606C111.643 24.0002 112.669 23.7981 113.627 23.4052C114.585 23.0124 115.455 22.4366 116.188 21.7106C116.921 20.9847 117.502 20.1228 117.899 19.1742C118.296 18.2256 118.5 17.2089 118.5 16.1822V7.81901C118.5 6.79216 118.296 5.77534 117.899 4.82662C117.503 3.8779 116.921 3.01588 116.188 2.28979C115.455 1.5637 114.585 0.987758 113.627 0.594872C112.669 0.201985 111.643 -0.000155978 110.606 9.03034e-08ZM107.272 18.2317C107.273 19.3695 107.18 20.5055 106.995 21.6285C106.976 21.7451 106.916 21.8512 106.825 21.9279C106.734 22.0045 106.619 22.0466 106.499 22.0466C106.38 22.0466 106.265 22.0045 106.174 21.9279C106.082 21.8519 106.022 21.7455 106.003 21.6285C105.82 20.5054 105.728 19.3695 105.728 18.2317V5.58416C105.728 4.44679 105.82 3.31126 106.003 2.18852C106.022 2.07157 106.082 1.96517 106.174 1.88911C106.242 1.83196 106.324 1.79369 106.411 1.77824C106.499 1.76278 106.589 1.77069 106.673 1.80115C106.756 1.83161 106.83 1.88353 106.887 1.9516C106.944 2.01966 106.981 2.10143 106.995 2.18852C107.18 3.31116 107.273 4.44673 107.272 5.58416V18.2317Z" fill="#552B5E"/>
</g>
<defs>
<clipPath id="clip0_1764_50823">
<rect width="144" height="24" fill="white"/>
</clipPath>
</defs>
</svg>
